<svg width="50" height="50" viewBox="0 0 50 50" fill="none" xmlns="http://www.w3.org/2000/svg">
<path d="M16.8654 24.9853H6.20576C6.05036 24.9853 5.90133 25.047 5.79144 25.1569C5.68156 25.2668 5.61982 25.4158 5.61982 25.5712V35.9422C5.61982 36.0976 5.68156 36.2466 5.79144 36.3565C5.90133 36.4664 6.05036 36.5281 6.20576 36.5281H16.8654C17.0208 36.5281 17.1699 36.4664 17.2797 36.3565C17.3896 36.2466 17.4514 36.0976 17.4514 35.9422V25.5712C17.4514 25.4158 17.3896 25.2668 17.2797 25.1569C17.1699 25.047 17.0208 24.9853 16.8654 24.9853ZM16.2795 35.3562H6.7917V26.1571H16.2795V35.3562ZM48.0029 37.7168H40.7565C40.8325 37.3243 40.883 36.9272 40.9075 36.5281H43.7952C43.9506 36.5281 44.0997 36.4664 44.2095 36.3565C44.3194 36.2466 44.3812 36.0976 44.3812 35.9422V13.1843C44.3812 13.0289 44.3194 12.8798 44.2095 12.77C44.0997 12.6601 43.9506 12.5983 43.7952 12.5983H33.1355C32.9801 12.5983 32.8311 12.6601 32.7212 12.77C32.6113 12.8798 32.5496 13.0289 32.5496 13.1843V26.7874C32.0062 26.7395 31.4597 26.7397 30.9163 26.7879V19.3776C30.9163 19.2222 30.8546 19.0732 30.7447 18.9633C30.6348 18.8534 30.4858 18.7917 30.3304 18.7917H19.6707C19.5153 18.7917 19.3663 18.8534 19.2564 18.9633C19.1465 19.0732 19.0848 19.2222 19.0848 19.3776V35.9421C19.0848 36.0975 19.1465 36.2465 19.2564 36.3564C19.3663 36.4663 19.5153 36.528 19.6707 36.528H22.5655C22.5907 36.9265 22.6397 37.3236 22.7165 37.7167H1.99805C1.84265 37.7167 1.69361 37.7784 1.58373 37.8883C1.47384 37.9982 1.41211 38.1472 1.41211 38.3026V40.9956C1.41211 41.151 1.47384 41.3 1.58373 41.4099C1.69361 41.5198 1.84265 41.5815 1.99805 41.5815H22.6974C22.5213 41.8118 22.4261 42.0937 22.4267 42.3836C22.4267 42.4754 22.4362 42.5656 22.4542 42.6534L18.5586 46.0644C18.1374 46.4331 17.9779 46.9809 18.1212 47.5669C18.3368 48.4488 19.2298 49.3418 20.1117 49.5573C20.2472 49.591 20.3863 49.6082 20.526 49.6087C20.9509 49.6087 21.3341 49.4398 21.6143 49.1198L25.0252 45.2242C25.113 45.2422 25.2032 45.2518 25.295 45.2518C25.65 45.2518 25.9832 45.1141 26.2332 44.8641L27.1729 43.9245C28.5815 44.7293 30.1584 45.1338 31.7364 45.1338C34.0911 45.1338 36.4465 44.2372 38.2392 42.4446C38.5139 42.1699 38.765 41.8806 38.9977 41.5814H48.0029C48.1583 41.5814 48.3074 41.5197 48.4173 41.4098C48.5271 41.2999 48.5889 41.1509 48.5889 40.9955V38.3025C48.5889 38.1471 48.5271 37.9981 48.4173 37.8882C48.3074 37.7783 48.1583 37.7166 48.0029 37.7166V37.7168ZM33.7214 13.7702H43.2092V35.3562H40.9074C40.771 33.2003 39.8831 31.0835 38.2391 29.4396C36.9533 28.1537 35.3779 27.3317 33.7213 26.9681V13.7702H33.7214ZM22.5654 35.3562H20.2565V19.9637H29.7443V26.9696C28.0903 27.3341 26.5177 28.1557 25.2338 29.4396C23.5898 31.0835 22.7019 33.2003 22.5654 35.3562ZM2.58398 40.4098V38.8887H23.028C23.2055 39.4151 23.4305 39.9242 23.7005 40.4098H2.58398ZM20.7325 48.348C20.6936 48.3925 20.6208 48.4754 20.3899 48.4191C19.923 48.305 19.3737 47.7557 19.2596 47.2888C19.2031 47.0578 19.286 46.9852 19.3307 46.9461L23.1204 43.6278L24.0509 44.5583L20.7325 48.348ZM25.4045 44.0356C25.3658 44.0743 25.3192 44.0802 25.2949 44.0802C25.2706 44.0802 25.2241 44.0743 25.1854 44.0355L23.6429 42.4932C23.6042 42.4545 23.5984 42.408 23.5984 42.3837C23.5984 42.3594 23.6042 42.3129 23.643 42.2741L24.4143 41.5028C24.5626 41.6989 24.7188 41.8889 24.8824 42.0724H24.8825C24.9961 42.1998 25.1132 42.324 25.2337 42.4448C25.3546 42.5653 25.4788 42.6824 25.6061 42.7961L25.6063 42.7963C25.7897 42.9599 25.9797 43.116 26.1757 43.2644L25.4044 44.0356H25.4045ZM37.4105 41.6163C34.3939 44.6327 29.5542 44.7396 26.4069 41.9396L25.7395 41.2723C24.4295 39.8021 23.7122 37.9276 23.7122 35.9423C23.7122 33.7989 24.5469 31.7838 26.0624 30.2682C27.6268 28.7038 29.6816 27.9218 31.7364 27.9218C33.7912 27.9218 35.8461 28.7039 37.4105 30.2682C40.5387 33.3969 40.5391 38.4878 37.4105 41.6163ZM47.417 40.4099H39.7725C40.0424 39.9243 40.2675 39.4152 40.4449 38.8888H47.417V40.4099ZM7.10361 24.0392C8.4708 24.0392 9.58301 22.9269 9.58301 21.5597C9.58356 20.9851 9.38362 20.4284 9.01768 19.9854L13.9946 13.3537C14.3033 13.4867 14.6359 13.5551 14.972 13.5548C16.1372 13.5548 17.1168 12.7465 17.3809 11.6612H26.028C26.2921 12.7465 27.2716 13.5548 28.4369 13.5548C29.8041 13.5548 30.9164 12.4425 30.9164 11.0753C30.9164 10.8128 30.875 10.5598 30.7991 10.3221L40.1506 4.62354C40.5994 5.07188 41.2188 5.34951 41.9019 5.34951C43.269 5.34951 44.3813 4.23721 44.3813 2.87012C44.3813 1.50303 43.2689 0.390625 41.9019 0.390625C40.5348 0.390625 39.4225 1.50293 39.4225 2.87012C39.4225 3.13262 39.4639 3.38564 39.5397 3.62334L30.1883 9.32188C29.7394 8.87344 29.12 8.5958 28.4369 8.5958C27.2717 8.5958 26.2921 9.4041 26.028 10.4894H17.3809C17.1168 9.4041 16.1373 8.5958 14.972 8.5958C13.6048 8.5958 12.4925 9.70811 12.4925 11.0753C12.4919 11.6499 12.6919 12.2066 13.0578 12.6496L8.08076 19.2813C7.77212 19.1484 7.43956 19.08 7.10352 19.0803C5.73633 19.0803 4.62412 20.1926 4.62412 21.5597C4.62412 22.9268 5.73652 24.0392 7.10361 24.0392ZM41.9018 1.5627C42.6228 1.5627 43.2093 2.14932 43.2093 2.87031C43.2093 3.59131 42.6228 4.17783 41.9018 4.17783C41.1808 4.17783 40.5942 3.59131 40.5942 2.87031C40.5942 2.14932 41.1808 1.5627 41.9018 1.5627ZM28.4368 9.76787C29.1578 9.76787 29.7444 10.3545 29.7444 11.0755C29.7444 11.7965 29.1579 12.3831 28.4368 12.3831C27.7157 12.3831 27.1293 11.7965 27.1293 11.0755C27.1293 10.3545 27.7158 9.76787 28.4368 9.76787ZM14.972 9.76787C15.693 9.76787 16.2795 10.3545 16.2795 11.0755C16.2795 11.7965 15.693 12.3831 14.972 12.3831C14.251 12.3831 13.6644 11.7965 13.6644 11.0755C13.6644 10.3545 14.2509 9.76787 14.972 9.76787ZM7.10361 20.2522C7.82461 20.2522 8.41113 20.8388 8.41113 21.5598C8.41113 22.2808 7.82461 22.8674 7.10361 22.8674C6.38262 22.8674 5.79609 22.2808 5.79609 21.5598C5.79609 20.8388 6.38262 20.2522 7.10361 20.2522ZM26.8559 31.0616C24.1646 33.7528 24.1646 38.1316 26.8559 40.8229C28.2015 42.1685 29.9689 42.8413 31.7365 42.8413C33.5041 42.8413 35.2716 42.1685 36.6172 40.8229C39.3084 38.1316 39.3084 33.7528 36.6172 31.0616C33.9261 28.3704 29.5472 28.3704 26.8559 31.0616ZM35.7885 39.9943C33.5543 42.2285 29.9188 42.2287 27.6845 39.9943C25.4501 37.76 25.4502 34.1246 27.6845 31.8902C28.8016 30.7731 30.269 30.2145 31.7364 30.2145C33.2038 30.2145 34.6713 30.7731 35.7885 31.8902C38.0228 34.1246 38.0228 37.76 35.7885 39.9943Z" fill="#1296DF"/>
</svg>