<svg width="50" height="50" viewBox="0 0 50 50" fill="none" xmlns="http://www.w3.org/2000/svg">
<g clip-path="url(#clip0_1362_1000)">
<path d="M48.4851 42.0457H46.6669V14.5457C46.6669 13.3336 45.6821 12.3487 44.4699 12.3487H37.576V7.57599H42.576C43.0305 7.57599 43.3336 7.27296 43.3336 6.81842V5.83357C44.3942 5.53054 45.1517 4.54569 45.1517 3.33357C45.1517 1.89418 44.0154 0.757812 42.576 0.757812C41.1366 0.757812 40.0002 1.89418 40.0002 3.33357C40.0002 4.46993 40.7578 5.45478 41.8184 5.83357V6.06084H36.8184C36.3639 6.06084 36.0608 6.36387 36.0608 6.81842V12.3487H31.3639V5.83357C32.4245 5.53054 33.1821 4.54569 33.1821 3.33357C33.1821 1.89418 32.0457 0.757812 30.6063 0.757812C29.1669 0.757812 28.0305 1.89418 28.0305 3.33357C28.0305 4.46993 28.7881 5.45478 29.8487 5.83357V12.3487H19.0154V5.83357C20.076 5.53054 20.8336 4.54569 20.8336 3.33357C20.9093 1.89418 19.6972 0.757812 18.2578 0.757812C16.8184 0.757812 15.6821 1.89418 15.6821 3.33357C15.6821 4.46993 16.4396 5.45478 17.5002 5.83357V12.3487H13.9396V6.81842C13.9396 6.36387 13.6366 6.06084 13.1821 6.06084H8.18205V5.83357C9.24266 5.53054 10.0002 4.54569 10.0002 3.33357C10.0002 1.89418 8.86387 0.757812 7.42448 0.757812C5.98509 0.757812 4.84872 1.89418 4.84872 3.33357C4.84872 4.46993 5.6063 5.45478 6.6669 5.83357V6.81842C6.6669 7.27296 6.96993 7.57599 7.42448 7.57599H12.4245V12.3487H5.53054C4.31842 12.3487 3.33357 13.3336 3.33357 14.5457V42.0457H1.51539C1.06084 42.0457 0.757812 42.3487 0.757812 42.8033C0.757812 46.3639 3.56084 49.2427 6.96993 49.2427H43.0305C46.4396 49.2427 49.2427 46.3639 49.2427 42.8033C49.2427 42.4245 48.9396 42.0457 48.4851 42.0457ZM41.5154 3.33357C41.5154 2.72751 41.9699 2.27296 42.576 2.27296C43.1821 2.27296 43.6366 2.72751 43.6366 3.33357C43.6366 3.93963 43.1821 4.39418 42.576 4.39418C41.9699 4.39418 41.5154 3.93963 41.5154 3.33357ZM29.5457 3.33357C29.5457 2.72751 30.0002 2.27296 30.6063 2.27296C31.2124 2.27296 31.6669 2.72751 31.6669 3.33357C31.6669 3.93963 31.2124 4.39418 30.6063 4.39418C30.0002 4.39418 29.5457 3.93963 29.5457 3.33357ZM17.1972 3.33357C17.1972 2.72751 17.6518 2.27296 18.2578 2.27296C18.8639 2.27296 19.3184 2.72751 19.3184 3.33357C19.3184 3.93963 18.8639 4.39418 18.2578 4.39418C17.7275 4.39418 17.1972 3.93963 17.1972 3.33357ZM6.36387 3.33357C6.36387 2.72751 6.81842 2.27296 7.42448 2.27296C8.03054 2.27296 8.48509 2.72751 8.48509 3.33357C8.48509 3.93963 8.03054 4.39418 7.42448 4.39418C6.81842 4.39418 6.36387 3.93963 6.36387 3.33357ZM4.84872 14.5457C4.84872 14.1669 5.15175 13.8639 5.53054 13.8639H44.3942C44.773 13.8639 45.076 14.1669 45.076 14.5457V42.0457H4.84872V14.5457ZM43.0305 47.7275H6.96993C4.62145 47.7275 2.72751 45.9093 2.34872 43.5608H47.6518C47.3487 45.9093 45.379 47.7275 43.0305 47.7275Z" fill="#1296DF"/>
<path d="M14.5453 24.924H10.9089C10.4544 24.924 10.1514 25.227 10.1514 25.6816V35.9089C10.1514 36.3634 10.4544 36.6664 10.9089 36.6664H14.5453C14.9999 36.6664 15.3029 36.3634 15.3029 35.9089V25.6816C15.3029 25.3028 14.9241 24.924 14.5453 24.924ZM13.7877 35.1513H11.6665V26.4392H13.7877V35.1513ZM22.7271 19.2422H19.0908C18.6362 19.2422 18.3332 19.5452 18.3332 19.9998V35.9089C18.3332 36.3634 18.6362 36.6664 19.0908 36.6664H22.7271C23.1817 36.6664 23.4847 36.3634 23.4847 35.9089V19.9998C23.4847 19.621 23.1817 19.2422 22.7271 19.2422ZM21.9696 35.1513H19.8483V20.7573H21.9696V35.1513ZM30.9089 30.0755H27.2726C26.818 30.0755 26.515 30.3786 26.515 30.8331V35.9089C26.515 36.3634 26.818 36.6664 27.2726 36.6664H30.9089C31.3635 36.6664 31.6665 36.3634 31.6665 35.9089V30.8331C31.6665 30.3786 31.3635 30.0755 30.9089 30.0755ZM30.1514 35.1513H28.0302V31.5907H30.1514V35.1513ZM39.1665 22.1967H35.5302C35.0756 22.1967 34.7726 22.4998 34.7726 22.9543V35.9089C34.7726 36.3634 35.0756 36.6664 35.5302 36.6664H39.1665C39.6211 36.6664 39.9241 36.3634 39.9241 35.9089V22.9543C39.9241 22.5755 39.5453 22.1967 39.1665 22.1967ZM38.4089 35.1513H36.2877V23.7119H38.4089V35.1513Z" fill="#1296DF"/>
</g>
<defs>
<clipPath id="clip0_1362_1000">
<rect width="50" height="50" fill="white"/>
</clipPath>
</defs>
</svg>