<svg width="50" height="50" viewBox="0 0 50 50" fill="none" xmlns="http://www.w3.org/2000/svg">
<g clip-path="url(#clip0_1366_580)">
<path d="M38.2812 35.1562H39.8438V36.7188H38.2812V35.1562ZM32.0312 35.1562H33.5938V36.7188H32.0312V35.1562ZM35.1562 35.1562H36.7188V36.7188H35.1562V35.1562ZM35.9375 5.46875C31.1992 5.46875 27.3438 9.32422 27.3438 14.0625C27.3438 18.8008 31.1992 22.6562 35.9375 22.6562C40.6758 22.6562 44.5312 18.8008 44.5312 14.0625C44.5312 9.32422 40.6758 5.46875 35.9375 5.46875ZM35.9375 21.0938C32.0609 21.0938 28.9062 17.9391 28.9062 14.0625C28.9062 10.1859 32.0609 7.03125 35.9375 7.03125C39.8141 7.03125 42.9688 10.1859 42.9688 14.0625C42.9688 17.9391 39.8141 21.0938 35.9375 21.0938Z" fill="#1296DF"/>
<path d="M49.2188 16.9758V11.1484L47.0828 10.4641C46.8908 9.86519 46.6507 9.28283 46.3648 8.72266L47.3898 6.73125L43.2695 2.61094L41.2781 3.63594C40.718 3.35008 40.1356 3.10997 39.5367 2.91797L38.8508 0.78125H33.0234L32.3391 2.91719C31.7359 3.11094 31.1523 3.35156 30.5977 3.63516L28.6063 2.61016L24.4859 6.73047L25.4438 8.59375H4.6875C2.53359 8.59375 0.78125 10.3461 0.78125 12.5V35.9375C0.78125 38.0914 2.53359 39.8438 4.6875 39.8438H14.8148C14.7497 40.4608 14.5565 41.0574 14.2476 41.5955C13.9388 42.1336 13.521 42.6013 13.0211 42.9688H10.9375C9.64531 42.9688 8.59375 44.0203 8.59375 45.3125V46.875C8.59375 48.1672 9.64531 49.2188 10.9375 49.2188H34.375C35.6672 49.2188 36.7188 48.1672 36.7188 46.875V45.3125C36.7188 44.0203 35.6672 42.9688 34.375 42.9688H32.2922C31.7923 42.6013 31.3745 42.1336 31.0656 41.5955C30.7568 41.0574 30.5636 40.4608 30.4984 39.8438H40.625C42.7789 39.8438 44.5312 38.0914 44.5312 35.9375V24.2516L47.3891 21.3938L46.3641 19.4031C46.6477 18.8492 46.8875 18.2656 47.082 17.6617L49.2188 16.9758ZM35.1562 45.3125V46.875C35.1562 47.3063 34.8055 47.6562 34.375 47.6562H10.9375C10.507 47.6562 10.1562 47.3063 10.1562 46.875V45.3125C10.1562 44.8812 10.507 44.5312 10.9375 44.5312H34.375C34.8055 44.5312 35.1562 44.8812 35.1562 45.3125ZM30.1008 42.9688H15.2117C15.8872 42.0578 16.2912 40.9745 16.3773 39.8438H28.9359C29.0221 40.9743 29.4259 42.0576 30.1008 42.9688ZM40.625 38.2812H4.6875C3.39531 38.2812 2.34375 37.2297 2.34375 35.9375V12.5C2.34375 11.2078 3.39531 10.1562 4.6875 10.1562H24.9055C24.8687 10.2594 24.8266 10.3594 24.793 10.4641L22.6562 11.1492V11.7188H5.46875C4.60703 11.7188 3.90625 12.4195 3.90625 13.2812V32.0312C3.90625 32.893 4.60703 33.5938 5.46875 33.5938H39.8438C40.7055 33.5938 41.4062 32.893 41.4062 32.0312V24.5562L42.9688 25.3602V35.9375C42.9688 37.2297 41.9172 38.2812 40.625 38.2812ZM28.6063 25.5141L30.5977 24.4891C31.1523 24.7727 31.7359 25.0133 32.3391 25.207L33.0242 27.3438H38.8516L39.5359 25.2078C39.6406 25.1742 39.7406 25.1313 39.8438 25.0953V32.0312H5.46875V13.2812H22.6562V16.9758L24.7922 17.6602C24.9867 18.2641 25.2266 18.8477 25.5102 19.4016L24.4852 21.3922L28.6063 25.5141ZM45.8156 16.4258L45.7016 16.8297C45.4881 17.5904 45.1858 18.3233 44.8008 19.0133L44.5953 19.3797L45.4781 21.0945L42.9695 23.6031L41.2547 22.7211L40.8891 22.9258C40.2102 23.3055 39.475 23.6094 38.7047 23.8266L38.3008 23.9406L37.7117 25.7812H34.1641L33.5742 23.9406L33.1703 23.8266C32.4095 23.6125 31.6764 23.3102 30.9859 22.9258L30.6203 22.7211L28.9055 23.6031L26.3969 21.0945L27.2797 19.3797L27.0742 19.0133C26.6894 18.3233 26.387 17.5904 26.1734 16.8297L26.0594 16.4258L24.2188 15.8367V12.2891L26.0594 11.6992L26.1734 11.2953C26.3914 10.525 26.6945 9.78984 27.0742 9.11094L27.2789 8.74531L26.3969 7.03047L28.9055 4.52188L30.6203 5.40391L30.9859 5.19922C31.6648 4.81953 32.4 4.51562 33.1703 4.29844L33.5742 4.18438L34.1633 2.34375H37.7109L38.3008 4.18438L38.7047 4.29844C39.475 4.51641 40.2102 4.81953 40.8891 5.19922L41.2547 5.40391L42.9695 4.52188L45.4781 7.03047L44.5961 8.74531L44.8008 9.11094C45.1805 9.78984 45.4844 10.525 45.7016 11.2953L45.8156 11.6992L47.6562 12.2883V15.8359L45.8156 16.4258Z" fill="#1296DF"/>
<path d="M35.9375 10.1562C33.7836 10.1562 32.0312 11.9086 32.0312 14.0625C32.0312 16.2164 33.7836 17.9688 35.9375 17.9688C38.0914 17.9688 39.8438 16.2164 39.8438 14.0625C39.8438 11.9086 38.0914 10.1562 35.9375 10.1562ZM35.9375 16.4062C34.6453 16.4062 33.5938 15.3547 33.5938 14.0625C33.5938 12.7703 34.6453 11.7188 35.9375 11.7188C37.2297 11.7188 38.2812 12.7703 38.2812 14.0625C38.2812 15.3547 37.2297 16.4062 35.9375 16.4062ZM18.75 17.9688H9.375C8.08281 17.9688 7.03125 19.0203 7.03125 20.3125V28.125C7.03125 29.4172 8.08281 30.4688 9.375 30.4688H18.75C20.0422 30.4688 21.0938 29.4172 21.0938 28.125V20.3125C21.0938 19.0203 20.0422 17.9688 18.75 17.9688ZM13.2812 19.5312H14.8438V21.0938H13.2812V19.5312ZM19.5312 28.125C19.5312 28.5562 19.1805 28.9062 18.75 28.9062H9.375C8.94453 28.9062 8.59375 28.5562 8.59375 28.125V20.3125C8.59375 19.882 8.94453 19.5312 9.375 19.5312H11.7188V22.6562H16.4062V19.5312H18.75C19.1805 19.5312 19.5312 19.882 19.5312 20.3125V28.125ZM7.03125 14.8438H8.59375V16.4062H7.03125V14.8438ZM10.1562 14.8438H21.0938V16.4062H10.1562V14.8438ZM33.5938 28.9062H35.1562V30.4688H33.5938V28.9062ZM30.4688 28.9062H32.0312V30.4688H30.4688V28.9062ZM36.7188 28.9062H38.2812V30.4688H36.7188V28.9062Z" fill="#1296DF"/>
</g>
<defs>
<clipPath id="clip0_1366_580">
<rect width="50" height="50" fill="white"/>
</clipPath>
</defs>
</svg>