<svg width="50" height="50" viewBox="0 0 50 50" fill="none" xmlns="http://www.w3.org/2000/svg">
<path fill-rule="evenodd" clip-rule="evenodd" d="M19.6384 34.996C19.7781 35.3496 19.9306 35.6931 20.0954 36.0243C21.0117 37.8702 22.2966 39.3497 23.8043 40.2671V34.4925C22.3467 34.5277 20.9477 34.7021 19.6384 34.9955V34.996ZM18.6063 29.901C18.6538 31.3319 18.8869 32.6968 19.273 33.9533C20.6981 33.6248 22.2208 33.4301 23.8043 33.3933V29.901H18.6063ZM19.2736 24.7499C18.8869 26.0064 18.6543 27.3713 18.6063 28.8017H23.8043V25.3094C22.2208 25.2726 20.6981 25.0784 19.2736 24.7499ZM23.8043 18.4345C22.3019 19.3492 21.0197 20.8239 20.1024 22.6661C19.9354 23.0016 19.7808 23.3493 19.6389 23.7072C20.9483 24.0005 22.3472 24.1749 23.8043 24.2101V18.4345ZM18.5663 23.4346C17.5674 23.1504 16.6308 22.7946 15.7721 22.3786C16.0121 22.0837 16.2665 21.8015 16.5348 21.5327C17.953 20.1146 19.7552 19.0799 21.7723 18.5972C20.7216 19.5524 19.8197 20.769 19.1189 22.1759C18.9178 22.5802 18.7333 23.0005 18.5663 23.4346ZM17.5066 28.8017C17.554 27.2774 17.7994 25.8198 18.209 24.4741C17.1002 24.1547 16.0617 23.7515 15.1134 23.2768C14.0595 24.8768 13.4099 26.767 13.3102 28.8017H17.5066ZM18.2095 34.2285C17.7999 32.8829 17.554 31.4253 17.5066 29.901H13.3102C13.4099 31.9357 14.059 33.8259 15.1134 35.4259C16.0623 34.9512 17.1007 34.548 18.2095 34.2285ZM21.7717 40.1055C19.7552 39.6233 17.9535 38.5886 16.5353 37.1705C16.2671 36.9022 16.0121 36.6195 15.7727 36.3246C16.6313 35.908 17.5684 35.5523 18.5674 35.268C18.7322 35.6963 18.9141 36.1107 19.1125 36.5097C19.8144 37.9241 20.7195 39.1465 21.7723 40.105L21.7717 40.1055ZM27.1223 18.6436C28.0828 19.5289 28.9175 20.6346 29.5853 21.9045C29.8354 22.3802 30.0621 22.8794 30.2637 23.3994C31.2173 23.121 32.1134 22.7776 32.9368 22.3781C32.2979 21.593 31.5539 20.897 30.7251 20.3119C29.6504 19.5529 28.4333 18.9812 27.1223 18.6436ZM29.1954 23.6784C27.8498 23.9893 26.4076 24.1739 24.9036 24.2101V18.354C26.3964 19.2207 27.6796 20.6367 28.6151 22.416C28.8269 22.8192 29.021 23.241 29.1954 23.6784ZM24.9036 40.3498C25.9468 39.7444 26.8732 38.8836 27.6498 37.8345C28.2642 37.0046 28.7842 36.0568 29.1938 35.0248C28.7026 34.9117 28.1986 34.8152 27.6834 34.7363C26.7879 34.5992 25.8583 34.5165 24.9036 34.4936V40.3498ZM28.7741 31.6359C29.3677 30.9804 29.972 30.3612 30.5789 29.7815C30.6045 29.7612 30.628 29.7388 30.6493 29.7148C30.8163 29.5564 30.9827 29.4012 31.1496 29.2492C31.1555 29.2444 31.1608 29.2391 31.1661 29.2343C32.2787 28.222 33.3934 27.3473 34.4649 26.6331C34.8324 26.3883 35.194 26.1627 35.5481 25.9574C35.5641 25.9494 35.579 25.9403 35.594 25.9307C36.9151 25.1696 38.1263 24.6923 39.1311 24.5493L41.6736 26.8518C41.6181 28.1484 41.0523 29.8348 40.0608 31.6989C39.017 33.6605 37.5135 35.7934 35.6436 37.858C35.5806 37.9278 35.4825 38.034 35.3524 38.1737L33.5593 36.5497C33.5449 36.5337 33.5289 36.5187 33.5123 36.5043C33.5027 36.4963 33.4931 36.4883 33.4835 36.4809L31.3752 34.5715C31.3565 34.5517 31.3363 34.5336 31.3149 34.5165L30.477 33.7576C30.4621 33.7427 30.4461 33.7283 30.4296 33.7144L28.4893 31.957C28.6381 31.7885 28.7341 31.6797 28.7746 31.6354L28.7741 31.6359ZM32.3795 36.9577C31.4109 37.9796 30.2525 38.8159 28.9618 39.4084C28.3757 39.6772 27.7612 39.8964 27.1244 40.0602C27.6327 39.5924 28.1026 39.0649 28.5303 38.4873C29.2263 37.547 29.8104 36.4723 30.2621 35.3032C30.4093 35.3464 30.5554 35.3907 30.7 35.4371L32.3795 36.9577ZM31.2653 27.6876C31.1565 26.5521 30.9373 25.4624 30.6232 24.4379C31.6856 24.1243 32.6824 23.7333 33.5955 23.2762C33.9993 23.8891 34.3433 24.544 34.6201 25.2331C34.3689 25.3856 34.1155 25.5472 33.8601 25.7179C33.0136 26.2817 32.1416 26.9419 31.2653 27.6876ZM30.021 28.8017C30.0914 28.7356 30.1618 28.6695 30.2322 28.6044C30.1698 27.2342 29.9378 25.927 29.5629 24.7195L29.492 24.736C28.0508 25.0726 26.5079 25.272 24.9036 25.3094V28.8017H30.021ZM27.3063 31.645C27.4471 31.4813 27.5554 31.3559 27.6295 31.2717C27.6764 31.2189 27.7858 31.0973 27.9628 30.9015C28.2738 30.5586 28.5874 30.2247 28.9026 29.9015H24.9036V33.3938C25.9121 33.4173 26.8967 33.5048 27.8466 33.6499C28.2178 33.7064 28.5837 33.7725 28.9437 33.8467L27.3548 32.4077C27.1346 32.2082 27.1143 31.8706 27.3063 31.6461V31.645ZM47.7084 21.3749V43.6106C47.7084 44.1541 47.4866 44.6475 47.1292 45.0048C46.7719 45.3622 46.278 45.584 45.7351 45.584H2.97339C2.4299 45.584 1.93656 45.3622 1.57922 45.0048C1.22187 44.6475 1 44.1536 1 43.6106V5.97339C1 5.4299 1.22187 4.93656 1.57922 4.57922C1.93656 4.22187 2.43044 4 2.97339 4H45.7345C46.278 4 46.7713 4.22187 47.1287 4.57922C47.486 4.93656 47.7079 5.43044 47.7079 5.97339V16.8739C47.8508 16.9614 47.9879 17.0638 48.1175 17.1811L48.1378 17.1998L48.1388 17.1987C48.1458 17.2057 48.1527 17.2132 48.1591 17.2201C48.637 17.6708 48.917 18.2521 48.9842 18.8313C49.0557 19.4521 48.8855 20.0751 48.4557 20.5492L47.7079 21.3749H47.7084ZM46.7185 20.8372C46.7393 20.81 46.7623 20.7844 46.7873 20.7615L47.6444 19.8148C47.8503 19.5871 47.9308 19.2751 47.8935 18.9556C47.8551 18.6233 47.693 18.2878 47.4151 18.0228C47.3964 18.0084 47.3783 17.9929 47.3618 17.9758L47.3628 17.9748C47.2439 17.8702 47.1143 17.7865 46.9804 17.723C46.9516 17.7134 46.9244 17.7012 46.8977 17.6868C46.7255 17.6174 46.5473 17.5812 46.374 17.578C46.0535 17.5726 45.751 17.6836 45.5441 17.9118L40.0864 23.9376L42.1867 25.84L46.7185 20.8372ZM6.49935 9.72282H6.52601C6.93082 9.72282 7.25883 9.39481 7.25883 8.99C7.25883 8.58519 6.93082 8.25718 6.52601 8.25718H6.49935C6.09453 8.25718 5.76653 8.58519 5.76653 8.99C5.76653 9.39481 6.09453 9.72282 6.49935 9.72282ZM10.7 9.72282H10.7267C11.1315 9.72282 11.4595 9.39481 11.4595 8.99C11.4595 8.58519 11.1315 8.25718 10.7267 8.25718H10.7C10.2952 8.25718 9.96717 8.58519 9.96717 8.99C9.96717 9.39481 10.2952 9.72282 10.7 9.72282ZM14.9006 9.72282H14.9273C15.3321 9.72282 15.6601 9.39481 15.6601 8.99C15.6601 8.58519 15.3321 8.25718 14.9273 8.25718H14.9006C14.4958 8.25718 14.1678 8.58519 14.1678 8.99C14.1678 9.39481 14.4958 9.72282 14.9006 9.72282ZM20.8757 9.53988H42.2086C42.512 9.53988 42.7584 9.29401 42.7584 8.99C42.7584 8.68599 42.5126 8.44012 42.2086 8.44012H20.8757C20.5723 8.44012 20.3258 8.68599 20.3258 8.99C20.3258 9.29401 20.5717 9.53988 20.8757 9.53988ZM46.6092 13.8851V16.4974C46.5367 16.4899 46.4636 16.4851 46.3916 16.4841C45.7654 16.4739 45.1622 16.7049 44.7329 17.1785L39.0474 23.456C38.0298 23.5904 36.8489 24.0133 35.5817 24.6859C35.2217 23.8208 34.7646 23.0064 34.2243 22.2559C34.219 22.2485 34.2137 22.2405 34.2078 22.2335C33.4195 21.1445 32.4552 20.1908 31.3565 19.4153C29.3762 18.0174 26.9607 17.1961 24.3542 17.1961C20.9973 17.1961 17.9583 18.5567 15.7583 20.7567C13.5582 22.9568 12.1976 25.9958 12.1976 29.3527C12.1976 32.7096 13.5582 35.7486 15.7583 37.9486C17.9583 40.1487 20.9973 41.5093 24.3542 41.5093C26.158 41.5093 27.8732 41.114 29.4173 40.4058C30.8493 39.7487 32.1299 38.8244 33.195 37.6969L34.9929 39.3252L35.0062 39.3385C35.2254 39.5471 35.5726 39.5385 35.7812 39.3193C35.9007 39.1945 36.0132 39.0751 36.1193 38.9615C36.1929 38.882 36.3039 38.7609 36.4553 38.5934C38.3946 36.4526 39.9525 34.244 41.0315 32.2157C42.1126 30.1831 42.7238 28.3073 42.7707 26.8289L46.6097 22.5904V43.6128C46.6097 43.8528 46.5111 44.0715 46.3527 44.2299C46.1937 44.3888 45.9756 44.4869 45.7356 44.4869H2.97339C2.73338 44.4869 2.51471 44.3883 2.3563 44.2299C2.19737 44.0709 2.09923 43.8528 2.09923 43.6128V13.8845L46.6092 13.8851ZM2.09923 12.7853H46.6092V5.97392C46.6092 5.73391 46.5105 5.51524 46.3521 5.35684C46.1937 5.19843 45.9751 5.09976 45.7351 5.09976H2.97339C2.73338 5.09976 2.51471 5.19843 2.3563 5.35684C2.19737 5.51577 2.09923 5.73391 2.09923 5.97392V12.7853Z" fill="#1296DF"/>
</svg>