<svg width="50" height="50" viewBox="0 0 50 50" fill="none" xmlns="http://www.w3.org/2000/svg">
<g clip-path="url(#clip0_1368_598)">
<path d="M42.1807 13.2402H34.5004C34.0958 13.2402 33.768 13.5681 33.768 13.9727C33.768 14.3772 34.0958 14.7051 34.5004 14.7051H42.1807C42.5853 14.7051 42.9131 14.3772 42.9131 13.9727C42.9131 13.5681 42.5852 13.2402 42.1807 13.2402ZM42.9131 17.6565C42.9131 17.252 42.5853 16.9241 42.1807 16.9241H34.5004C34.0958 16.9241 33.768 17.252 33.768 17.6565C33.768 18.0611 34.0958 18.389 34.5004 18.389H42.1807C42.3749 18.389 42.5612 18.3118 42.6986 18.1744C42.8359 18.0371 42.9131 17.8508 42.9131 17.6565ZM34.5003 20.6079C34.0957 20.6079 33.7679 20.9357 33.7679 21.3403C33.7679 21.7449 34.0957 22.0728 34.5003 22.0728H39.5748C39.9794 22.0728 40.3072 21.7449 40.3072 21.3403C40.3072 20.9357 39.9794 20.6079 39.5748 20.6079H34.5003ZM48.4326 44.8729H44.2948V32.3614C44.2948 31.796 43.8349 31.336 43.2694 31.336H25.7319V29.1014C25.7319 28.6968 25.4041 28.3689 24.9995 28.3689C24.5949 28.3689 24.2671 28.6968 24.2671 29.1014V31.336H10.5798V21.0109H14.5595V23.8242C14.5595 24.3896 15.0194 24.8496 15.5849 24.8496H19.262C19.8274 24.8496 20.2874 24.3896 20.2874 23.8242V21.0109H24.2671V25.6834C24.2671 26.088 24.5949 26.4158 24.9995 26.4158C25.4041 26.4158 25.7319 26.088 25.7319 25.6834V20.5715C25.7319 20.0061 25.272 19.5461 24.7065 19.5461H10.1403C9.5749 19.5461 9.11494 20.0061 9.11494 20.5715V31.336H6.72959C6.16416 31.336 5.7042 31.796 5.7042 32.3614V44.8729H1.56641C1.00098 44.8729 0.541016 45.3328 0.541016 45.8982V48.9744C0.541016 49.5398 1.00098 49.9998 1.56641 49.9998H48.4326C48.998 49.9998 49.458 49.5398 49.458 48.9744V45.8982C49.458 45.3328 48.998 44.8729 48.4326 44.8729ZM16.0243 21.011H18.8226V23.3848H16.0243V21.011ZM34.5872 32.8009H37.3854V35.1747H34.5872V32.8009ZM15.7804 32.8009H19.0665V35.1747H15.7804V32.8009ZM7.16904 32.8009H14.3155V35.6142C14.3155 36.1796 14.7755 36.6396 15.3409 36.6396H19.506C20.0714 36.6396 20.5313 36.1796 20.5313 35.6142V32.8009H27.6778V44.8729H7.16904V32.8009ZM47.9932 48.535H2.00586V46.3377H37.2065C37.6111 46.3377 37.939 46.0099 37.939 45.6053C37.939 45.2007 37.6111 44.8729 37.2065 44.8729H29.1427V32.8009H33.1224V35.6142C33.1224 36.1796 33.5823 36.6396 34.1478 36.6396H37.8249C38.3903 36.6396 38.8503 36.1796 38.8503 35.6142V32.8009H42.83V44.8729H40.6245C40.2199 44.8729 39.8921 45.2007 39.8921 45.6053C39.8921 46.0099 40.2199 46.3377 40.6245 46.3377H47.9932V48.535Z" fill="#1296DF"/>
<path d="M29.1849 12.8511V26.1786C29.1849 26.744 29.6448 27.204 30.2103 27.204H46.4716C47.037 27.204 47.497 26.744 47.497 26.1786V19.5312C47.497 19.1267 47.1691 18.7988 46.7646 18.7988C46.36 18.7988 46.0321 19.1267 46.0321 19.5312V25.7392H30.6497V13.0204L30.6549 13.0205C32.4943 13.0205 34.1568 12.2523 35.342 11.0215H42.1811C42.5856 11.0215 42.9135 10.6937 42.9135 10.2891C42.9135 9.88447 42.5856 9.55664 42.1811 9.55664H36.406C37.0044 8.43292 37.2579 7.15759 37.1348 5.89043H46.032V16.1133C46.032 16.5179 46.3599 16.8457 46.7645 16.8457C47.169 16.8457 47.4969 16.5179 47.4969 16.1133V5.45098C47.4969 4.88555 47.0369 4.42559 46.4715 4.42559H36.8207C35.9494 1.85557 33.5155 0 30.6548 0C27.065 0 24.1445 2.92051 24.1445 6.51025C24.1445 9.59434 26.301 12.1826 29.1849 12.8511ZM30.6548 1.46484C33.4368 1.46484 35.7002 3.72822 35.7002 6.51025C35.7002 9.29228 33.4368 11.5557 30.6548 11.5557C27.8728 11.5557 25.6094 9.29228 25.6094 6.51025C25.6094 3.72822 27.8728 1.46484 30.6548 1.46484Z" fill="#1296DF"/>
<path d="M29.7693 8.66201C29.8373 8.7301 29.918 8.7841 30.0069 8.8209C30.0958 8.85771 30.1911 8.87659 30.2873 8.87646C30.3835 8.87659 30.4787 8.85771 30.5676 8.82091C30.6565 8.78411 30.7372 8.7301 30.8052 8.66201L33.7837 5.68359C33.8529 5.61586 33.908 5.53507 33.9457 5.4459C33.9835 5.35674 34.0033 5.26096 34.0038 5.16413C34.0043 5.06729 33.9856 4.97131 33.9488 4.88174C33.912 4.79217 33.8578 4.71079 33.7893 4.6423C33.7208 4.57382 33.6395 4.5196 33.5499 4.48277C33.4603 4.44594 33.3644 4.42724 33.2675 4.42774C33.1707 4.42825 33.0749 4.44796 32.9857 4.48572C32.8966 4.52348 32.8158 4.57856 32.748 4.64775L30.2874 7.1083L28.5609 5.38174C28.4236 5.24438 28.2373 5.16721 28.043 5.16721C27.8487 5.16721 27.6624 5.24438 27.5251 5.38174C27.3877 5.5191 27.3105 5.7054 27.3105 5.89966C27.3105 6.09391 27.3877 6.28022 27.5251 6.41758L29.7693 8.66201Z" fill="#1296DF"/>
</g>
<defs>
<clipPath id="clip0_1368_598">
<rect width="50" height="50" fill="white"/>
</clipPath>
</defs>
</svg>