<svg width="50" height="50" viewBox="0 0 50 50" fill="none" xmlns="http://www.w3.org/2000/svg">
<g clip-path="url(#clip0_1368_675)">
<path d="M35.7264 37.7979L33.0842 35.1558M35.1396 33.068L37.8088 35.7372M22.2202 18.9941H23.1934C25.3507 18.9941 27.0996 20.7431 27.0996 22.9004V28.3691C27.0996 29.1242 26.4875 29.7363 25.7324 29.7363H14.7949C14.0398 29.7363 13.4277 29.1242 13.4277 28.3691V22.9004C13.4277 20.7431 15.1767 18.9941 17.334 18.9941H18.3071" stroke="#1296DF" stroke-width="1.46484" stroke-miterlimit="10" stroke-linecap="round" stroke-linejoin="round"/>
<path d="M21.6116 19.4453L22.2121 24.208C22.2354 24.3928 22.2112 24.5805 22.1419 24.7535C22.0726 24.9264 21.9605 25.0788 21.816 25.1964L20.6412 26.1522C20.5346 26.2389 20.4015 26.2863 20.2642 26.2863C20.1268 26.2863 19.9937 26.2389 19.8871 26.1522L18.7123 25.1964C18.5678 25.0788 18.4556 24.9264 18.3863 24.7535C18.317 24.5806 18.2929 24.3928 18.3163 24.208L18.9217 19.4053" stroke="#1296DF" stroke-width="1.46484" stroke-miterlimit="10" stroke-linecap="round" stroke-linejoin="round"/>
<path d="M17.1225 14.392H23.3725M16.9893 16.3116V14.0655C16.9893 12.257 18.4553 10.791 20.2638 10.791C22.0723 10.791 23.5383 12.257 23.5383 14.0655V16.2993C23.5383 18.1112 22.0694 19.58 20.2576 19.58C18.4525 19.58 16.9893 18.1167 16.9893 16.3116Z" stroke="#1296DF" stroke-width="1.46484" stroke-miterlimit="10" stroke-linecap="round" stroke-linejoin="round"/>
<path d="M5.9375 33.5391C2.70723 30.0547 0.732422 25.3897 0.732422 20.2637C0.732422 9.47685 9.47686 0.732422 20.2637 0.732422C24.6426 0.732422 28.6849 2.17344 31.9423 4.60723M23.8227 39.4715C22.5969 39.6968 21.3526 39.8049 20.1063 39.7943M39.7927 20.5628C39.6687 28.8152 34.4267 35.8272 27.0997 38.5651" stroke="#1296DF" stroke-width="1.46484" stroke-miterlimit="10" stroke-linecap="round" stroke-linejoin="round"/>
<path d="M10.2311 33.4828C6.24189 30.4479 3.66211 25.6514 3.66211 20.2637C3.66211 11.1096 11.1096 3.66211 20.2637 3.66211C23.9032 3.66211 27.2729 4.83936 30.0122 6.83301M36.8628 20.5512C36.7088 29.5732 29.3218 36.8652 20.2637 36.8652C20.2111 36.8652 20.1587 36.8649 20.1063 36.8645M47.4641 42.4448L48.7999 43.7807C49.4235 44.4043 49.4235 45.4153 48.7999 46.039L46.039 48.7999C45.4153 49.4235 44.4043 49.4235 43.7807 48.7999L42.4773 47.4966M36.74 41.7593L35.4576 40.4769C34.834 39.8532 34.834 38.8422 35.4576 38.2186L38.2186 35.4576C38.8422 34.834 39.8532 34.834 40.4769 35.4576L41.7268 36.7075M41.1458 4.72861H43.7061C44.8047 4.72861 45.6954 5.61924 45.6954 6.71797V18.3643C45.6954 19.4629 44.8048 20.3536 43.7061 20.3536H32.0597C30.961 20.3536 30.0703 19.463 30.0703 18.3643V6.71797C30.0703 5.61934 30.9609 4.72861 32.0597 4.72861H37.5977M41.5651 47.4447L36.7513 42.6309C36.7029 42.5825 36.6646 42.5251 36.6384 42.462C36.6122 42.3988 36.5988 42.3311 36.5988 42.2627C36.5988 42.1944 36.6122 42.1267 36.6384 42.0635C36.6646 42.0003 36.7029 41.943 36.7513 41.8946L41.8946 36.7513C41.943 36.7029 42.0003 36.6646 42.0635 36.6384C42.1267 36.6122 42.1944 36.5988 42.2627 36.5988C42.3311 36.5988 42.3988 36.6122 42.462 36.6384C42.5251 36.6646 42.5825 36.7029 42.6309 36.7513L47.4447 41.5651C47.4931 41.6135 47.5314 41.6709 47.5576 41.734C47.5838 41.7972 47.5972 41.8649 47.5972 41.9333C47.5972 42.0016 47.5838 42.0693 47.5576 42.1325C47.5314 42.1956 47.4931 42.253 47.4447 42.3014L42.3014 47.4447C42.253 47.4931 42.1956 47.5314 42.1325 47.5576C42.0693 47.5838 42.0016 47.5972 41.9333 47.5972C41.8649 47.5972 41.7972 47.5838 41.734 47.5576C41.6709 47.5314 41.6135 47.4931 41.5651 47.4447ZM17.9492 49.2676H6.30283C5.2042 49.2676 4.31348 48.3769 4.31348 47.2782V35.6319C4.31348 34.5333 5.2041 33.6426 6.30283 33.6426H17.9492C19.0479 33.6426 19.9386 34.5332 19.9386 35.6319V47.2782C19.9386 48.3769 19.0479 49.2676 17.9492 49.2676Z" stroke="#1296DF" stroke-width="1.46484" stroke-miterlimit="10" stroke-linecap="round" stroke-linejoin="round"/>
<path d="M34.458 12.4173L37.2575 14.6068L41.3075 10.1387M8.31738 38.5256H13.7905M8.31738 41.4553H16.8619M8.31738 44.385H15.0274" stroke="#1296DF" stroke-width="1.46484" stroke-miterlimit="10" stroke-linecap="round" stroke-linejoin="round"/>
</g>
<defs>
<clipPath id="clip0_1368_675">
<rect width="50" height="50" fill="white"/>
</clipPath>
</defs>
</svg>