<svg width="30" height="45" viewBox="0 0 30 45" fill="none" xmlns="http://www.w3.org/2000/svg">
<g clip-path="url(#clip0_1368_688)">
<path d="M28.8888 11.1418C27.334 9.7254 24.4007 9.82811 23.0136 11.3472C22.8773 11.4964 22.8006 11.718 22.7454 11.9192C21.315 17.1186 19.89 22.3214 18.465 27.5219C18.4412 27.6084 18.4239 27.6971 18.3979 27.7836C18.3028 28.095 18.1082 28.3144 17.7676 28.2225C17.414 28.1274 17.3092 27.8506 17.4065 27.4981C17.6919 26.458 17.9752 25.4168 18.2606 24.3767C19.3969 20.2336 20.5268 16.0882 21.6826 11.9494C21.8123 11.4845 21.6934 11.2348 21.3247 10.972C19.6662 9.78811 17.3556 9.86271 15.8247 11.2099C15.6452 11.3677 15.536 11.6986 15.5349 11.9494C15.5187 17.0138 15.523 22.0781 15.523 27.1413C15.523 27.2678 15.5198 27.3933 15.5241 27.5198C15.5371 27.9068 15.4214 28.2388 14.9824 28.2301C14.5748 28.2225 14.4764 27.8939 14.4775 27.5349C14.4797 25.9855 14.4775 24.4351 14.4775 22.8857C14.4775 19.2637 14.4699 15.6406 14.4883 12.0186C14.4905 11.5688 14.3413 11.2931 13.9812 11.0401C12.3908 9.92542 10.2381 9.91677 8.65525 11.0185C8.28872 11.2737 8.20655 11.5213 8.32656 11.9559C9.73969 17.0678 11.1323 22.1851 12.5303 27.3014C12.554 27.3879 12.5908 27.4722 12.6059 27.5598C12.6643 27.8874 12.5638 28.1955 12.2243 28.2063C12.0286 28.2128 11.7053 27.9955 11.6458 27.8117C11.3236 26.8213 11.062 25.8104 10.7874 24.8038C9.62292 20.5363 8.4682 16.2677 7.28212 12.0078C7.18914 11.6726 6.9502 11.3212 6.67882 11.1028C5.22677 9.93515 3.2006 9.82379 1.61124 10.7406C1.18741 10.985 1.09875 11.1915 1.33337 11.664C3.89365 16.8202 6.4269 21.9894 8.96663 27.1543C9.03042 27.283 9.15368 27.4257 9.13422 27.5425C9.09854 27.7641 9.03258 28.0777 8.87905 28.1555C8.73417 28.229 8.43252 28.0895 8.25304 27.9674C8.12222 27.8776 8.07248 27.6646 7.99247 27.5035C5.39543 22.2251 2.80488 16.9456 0.195954 11.6737C-0.0300159 11.2185 -0.0700203 10.8261 0.125677 10.3482C2.68271 4.12371 7.27347 0.550354 13.9996 0.0454346C21.0879 -0.486515 27.3729 3.69556 29.8781 10.333C30.0565 10.8066 30.0446 11.2002 29.8143 11.6629C27.1697 16.9986 24.5467 22.3441 21.9172 27.6873C21.8859 27.7522 21.8556 27.8171 21.821 27.8809C21.6675 28.1642 21.4523 28.349 21.1225 28.1879C20.7798 28.0203 20.7549 27.7295 20.9117 27.4095C21.4426 26.3272 21.9734 25.2449 22.5054 24.1637C24.5705 19.9676 26.6366 15.7725 28.7007 11.5753C28.7731 11.4315 28.8293 11.2812 28.8888 11.1418ZM14.4559 0.86282C13.5693 1.18934 12.7454 1.40018 12.0124 1.784C10.6101 2.51705 9.76888 3.77665 9.17422 5.20059C8.53415 6.73481 8.25304 8.34687 8.17628 10.0725C10.303 8.86801 12.3702 8.86909 14.4559 10.0876C14.4559 7.04727 14.4559 4.06749 14.4559 0.86282ZM15.5576 1.02068C15.5576 4.03506 15.5576 7.02565 15.5576 10.079C17.6368 8.78368 19.6964 8.8053 21.8296 10.0357C21.688 7.736 21.2836 5.60495 20.0403 3.71826C18.9904 2.12458 17.5135 1.20448 15.5576 1.02068ZM7.12427 10.1049C7.35024 7.07106 7.91787 4.21562 10.0911 1.88347C6.81288 2.73113 2.28807 6.86887 1.66206 9.55565C3.55524 8.81827 5.35975 8.98586 7.12427 10.1049ZM20.0078 1.91158C22.0956 4.22535 22.6459 7.07755 22.8892 10.0865C24.6581 8.9718 26.4669 8.82909 28.4617 9.59566C26.6172 5.83525 23.8331 3.30525 20.0078 1.91158Z" fill="#1296DF"/>
<path d="M6.8936 32.9529C5.89241 32.8437 5.89133 32.8437 5.89133 31.9009C5.89133 31.144 5.88917 30.3883 5.89241 29.6314C5.89457 28.9276 6.0081 28.8119 6.70439 28.8119C10.6129 28.8108 14.5225 28.8108 18.4311 28.8108C20.1058 28.8108 21.7817 28.8097 23.4576 28.8119C24.1257 28.813 24.276 28.9654 24.2782 29.6401C24.2814 30.3786 24.2793 31.117 24.2793 31.8555C24.2793 32.8145 24.2555 32.8415 23.237 32.954C23.237 33.154 23.237 33.3637 23.237 33.5724C23.237 36.8149 23.2381 40.0564 23.2359 43.2989C23.2359 44.0438 23.1343 44.1465 22.398 44.1465C17.5164 44.1476 12.6348 44.1476 7.75207 44.1465C7.0374 44.1465 6.89468 44.006 6.89468 43.3021C6.8936 40.0596 6.89468 36.8182 6.89468 33.5757C6.8936 33.38 6.8936 33.1843 6.8936 32.9529ZM17.6504 32.9248C17.6385 33.1378 17.6212 33.2967 17.6212 33.4546C17.6191 34.5714 17.6267 35.6883 17.6169 36.8041C17.6115 37.4485 17.298 37.6345 16.7109 37.3555C16.3043 37.1631 15.8924 36.9793 15.5053 36.7511C15.208 36.576 14.9593 36.5652 14.6566 36.7403C14.2382 36.9836 13.8003 37.1977 13.3581 37.3966C12.8618 37.6193 12.5461 37.4182 12.5148 36.8809C12.505 36.7014 12.5126 36.5208 12.5126 36.3403C12.5126 35.2115 12.5126 34.0838 12.5126 32.9378C10.9611 32.9378 9.47658 32.9378 7.98129 32.9378C7.98129 36.3392 7.98129 39.7104 7.98129 43.0761C12.7418 43.0761 17.4547 43.0761 22.1828 43.0761C22.1828 39.6747 22.1828 36.3035 22.1828 32.9248C20.6616 32.9248 19.1857 32.9248 17.6504 32.9248ZM6.92604 29.8855C6.92604 30.557 6.92604 31.1938 6.92604 31.8414C8.79759 31.8414 10.6378 31.8414 12.4726 31.8414C12.4726 31.1613 12.4726 30.5224 12.4726 29.8855C10.6075 29.8855 8.78137 29.8855 6.92604 29.8855ZM23.2013 31.8544C23.2013 31.1862 23.2013 30.5483 23.2013 29.8812C21.3427 29.8812 19.5144 29.8812 17.6526 29.8812C17.6526 30.5505 17.6526 31.1884 17.6526 31.8544C19.5133 31.8544 21.3427 31.8544 23.2013 31.8544ZM16.5671 36.2138C16.5671 35.0061 16.5671 33.9735 16.5671 32.9475C15.5464 32.9475 14.5679 32.9475 13.5959 32.9475C13.5959 34.0125 13.5959 35.0374 13.5959 36.2192C14.6101 35.3185 15.5789 35.3683 16.5671 36.2138ZM16.5725 31.849C16.5725 31.1754 16.5725 30.5364 16.5725 29.8866C15.5572 29.8866 14.5788 29.8866 13.5884 29.8866C13.5884 30.5602 13.5884 31.197 13.5884 31.849C14.6079 31.849 15.5886 31.849 16.5725 31.849Z" fill="#1296DF"/>
</g>
<defs>
<clipPath id="clip0_1368_688">
<rect width="30" height="44.1475" fill="white"/>
</clipPath>
</defs>
</svg>