<svg width="50" height="50" viewBox="0 0 50 50" fill="none" xmlns="http://www.w3.org/2000/svg">
<g clip-path="url(#clip0_1368_692)">
<path d="M17.9052 15.9522C16.5285 16.842 15.3916 18.0565 14.5945 19.4888C13.7974 20.9211 13.3646 22.5274 13.334 24.1663C13.334 24.2758 13.3555 24.3841 13.3974 24.4852C13.4393 24.5863 13.5007 24.6782 13.5781 24.7556C13.6555 24.833 13.7473 24.8944 13.8484 24.9362C13.9495 24.9781 14.0579 24.9997 14.1673 24.9997C14.2768 24.9997 14.3851 24.9781 14.4862 24.9362C14.5873 24.8944 14.6792 24.833 14.7566 24.7556C14.834 24.6782 14.8954 24.5863 14.9372 24.4852C14.9791 24.3841 15.0007 24.2758 15.0007 24.1663C15.0288 22.8144 15.3863 21.4897 16.0422 20.3071C16.698 19.1246 17.6324 18.1198 18.7643 17.38C18.9501 17.2643 19.083 17.0801 19.1342 16.8673C19.1855 16.6545 19.1509 16.43 19.0381 16.2424C18.8031 15.8526 18.2984 15.7229 17.9052 15.9522Z" fill="#1296DF"/>
<path d="M43.3334 20.8332C41.3544 20.8358 39.6492 22.2282 39.251 24.1665H29.0825C28.8898 23.254 28.3954 22.433 27.6791 21.8357L30.4947 16.6668H33.4176C33.8455 18.7625 35.7906 20.1938 37.9188 19.9787C40.0471 19.7639 41.6668 17.9722 41.6668 15.8332C41.6668 13.6943 40.0471 11.9025 37.9188 11.6879C35.7906 11.4727 33.8456 12.9044 33.4175 15.0002H30.8335V9.51152L33.6784 6.6666H37.5843C38.012 8.7623 39.9574 10.1939 42.0856 9.97891C44.2139 9.76406 45.8336 7.97236 45.8336 5.8334C45.8336 3.69414 44.2139 1.90273 42.0856 1.6876C39.9574 1.47285 38.0119 2.9041 37.5843 4.9999H33.6784C33.2367 5.00109 32.8132 5.17656 32.5001 5.48818L31.7855 6.20303C31.2001 5.9863 30.6041 5.79915 29.9999 5.64229V1.6667C29.9987 0.746484 29.2534 0.00107422 28.3333 0H21.6667C20.7466 0.00117188 20.0012 0.746582 20.0001 1.6666V5.6416C18.1885 6.10364 16.4519 6.82084 14.8422 7.77168L12.0469 4.97588C11.8925 4.81686 11.7077 4.69056 11.5035 4.60451C11.2993 4.51846 11.0798 4.47441 10.8582 4.475H10.8567C10.6371 4.47403 10.4195 4.51728 10.217 4.60215C10.0144 4.68703 9.83098 4.8118 9.67764 4.96904L4.97627 9.66953C4.81828 9.82357 4.69259 10.0075 4.60652 10.2107C4.52045 10.4139 4.47574 10.6322 4.475 10.8528C4.47437 11.0735 4.51773 11.2922 4.60256 11.4959C4.68738 11.6997 4.81197 11.8845 4.96904 12.0396L7.7709 14.8418C6.82032 16.4518 6.10301 18.1885 5.64043 20H1.6666C0.746582 20.0013 0.00117188 20.7467 0 21.6668V28.3334C0.00117188 29.2535 0.746582 29.9989 1.6666 30H5.64043C6.10301 31.8115 6.82032 33.5482 7.7709 35.1582L4.97627 37.9529C4.81823 38.1069 4.6925 38.2909 4.60643 38.4941C4.52036 38.6973 4.47568 38.9156 4.47501 39.1363C4.47434 39.3569 4.51768 39.5755 4.60251 39.7792C4.68734 39.9829 4.81195 40.1677 4.96904 40.3227L9.67021 45.0234C9.82409 45.1826 10.0085 45.3091 10.2125 45.3953C10.4164 45.4815 10.6356 45.5257 10.857 45.5251H10.8585C11.3029 45.5271 11.7286 45.3488 12.0396 45.0311L14.8423 42.2288C16.4519 43.1796 18.1886 43.8968 20.0001 44.3589V48.3335C20.0012 49.2535 20.7466 49.9989 21.6667 50.0001H28.3333C29.2534 49.9989 29.9987 49.2535 29.9999 48.3335V44.3578C30.6041 44.2009 31.2001 44.0137 31.7855 43.797L32.5001 44.5118C32.8132 44.8234 33.2367 44.9989 33.6784 45.0001H37.5843C38.012 47.096 39.9574 48.5272 42.0856 48.3125C44.2139 48.0974 45.8336 46.306 45.8336 44.1667C45.8336 42.0277 44.2139 40.236 42.0856 40.0212C39.9574 39.8061 38.0119 41.2377 37.5843 43.3335H33.6784L30.8334 40.4886V34.9999H33.4175C33.8455 37.0957 35.7906 38.5274 37.9188 38.3122C40.0471 38.0975 41.6668 36.3058 41.6668 34.1668C41.6668 32.0279 40.0471 30.2361 37.9188 30.0214C35.7906 29.8063 33.8456 31.2375 33.4175 33.3333H30.4946L27.6791 28.1644C28.3954 27.5671 28.8897 26.7461 29.0824 25.8336H39.251C39.6896 27.9816 41.7179 29.4229 43.8911 29.1291C46.064 28.8357 47.638 26.9082 47.4907 24.7205C47.3435 22.5327 45.5262 20.8333 43.3335 20.8333L43.3334 20.8332ZM41.6668 3.3332C43.0474 3.3332 44.1666 4.45254 44.1666 5.8334C44.1666 7.21396 43.0474 8.3332 41.6668 8.3332C40.2859 8.3332 39.1666 7.21406 39.1666 5.8334C39.1682 4.45332 40.2867 3.33467 41.6668 3.3332ZM41.6668 41.6668C43.0474 41.6668 44.1666 42.7859 44.1666 44.1666C44.1666 45.5475 43.0474 46.6667 41.6668 46.6667C40.2859 46.6667 39.1666 45.5476 39.1666 44.1666C39.1682 42.7864 40.2867 41.6684 41.6668 41.6668ZM25 27.5002C23.6194 27.5002 22.4998 26.3806 22.4998 25C22.4998 23.6194 23.6194 22.4998 25 22.4998C26.3806 22.4998 27.5002 23.6194 27.5002 25C27.4986 26.3802 26.3801 27.4986 25 27.5002ZM37.5 13.3335C38.8806 13.3335 40.0002 14.4527 40.0002 15.8333C40.0002 17.2142 38.8806 18.3334 37.5 18.3334C36.1194 18.3334 34.9998 17.2143 34.9998 15.8333C35.0014 14.4531 36.1199 13.3351 37.5 13.3335ZM28.9859 42.8867C28.8008 42.9277 28.6352 43.0307 28.5165 43.1785C28.3979 43.3264 28.3332 43.5104 28.3333 43.7V48.3334H21.6667V43.7C21.6667 43.51 21.6018 43.3256 21.4827 43.1775C21.3635 43.0295 21.1974 42.9266 21.0117 42.8859C18.9356 42.431 16.9559 41.6137 15.1634 40.4717C15.0033 40.3705 14.8137 40.3267 14.6255 40.3475C14.4373 40.3683 14.2618 40.4525 14.1277 40.5861L10.8562 43.8526L6.14775 39.1392L9.41436 35.8726C9.54833 35.7386 9.63263 35.5629 9.65335 35.3746C9.67407 35.1863 9.62997 34.9965 9.52832 34.8366C8.38659 33.0441 7.56924 31.0646 7.11367 28.9887C7.07308 28.803 6.97027 28.6368 6.82228 28.5177C6.6743 28.3985 6.49002 28.3334 6.3 28.3333H1.6666V21.6667H6.3C6.48999 21.6667 6.67426 21.6017 6.82225 21.4826C6.97024 21.3635 7.07307 21.1973 7.11367 21.0117C7.56917 18.9357 8.38652 16.956 9.52832 15.1634C9.63 15.0035 9.67412 14.8138 9.65338 14.6255C9.63264 14.4372 9.54829 14.2616 9.41426 14.1277L6.14775 10.8559L10.8613 6.14746L14.1278 9.41406C14.2618 9.54815 14.4374 9.63255 14.6258 9.65334C14.8142 9.67413 15.004 9.63007 15.164 9.52842C16.9563 8.38641 18.9358 7.56928 21.0118 7.11455C21.1975 7.07379 21.3636 6.97081 21.4828 6.82269C21.6019 6.67456 21.6668 6.49018 21.6668 6.3001V1.6666H28.3334V6.3C28.3334 6.69063 28.6046 7.029 28.986 7.11328C29.488 7.22586 29.9851 7.35898 30.4761 7.5123L29.6552 8.3332C29.4999 8.48754 29.3768 8.67116 29.2929 8.87343C29.2091 9.07569 29.1663 9.29258 29.1669 9.51152V10.5915C23.039 8.81768 16.4598 11.1134 12.766 16.3147C9.07187 21.5156 9.07187 28.4844 12.766 33.6853C16.4598 38.8866 23.039 41.1823 29.1669 39.4085V40.4885C29.1664 40.7074 29.2093 40.9243 29.2931 41.1265C29.3769 41.3288 29.5 41.5124 29.6552 41.6668L30.4761 42.4873C29.9852 42.6411 29.488 42.7744 28.9859 42.8867ZM37.5 31.6666C38.8806 31.6666 40.0002 32.7857 40.0002 34.1667C40.0002 35.5473 38.8806 36.6665 37.5 36.6665C36.1194 36.6665 34.9998 35.5473 34.9998 34.1667C35.0014 32.7865 36.1199 31.6681 37.5 31.6666ZM29.1668 34.3788V37.6557C23.6652 39.4799 17.615 37.5412 14.199 32.8587C10.7826 28.1765 10.7826 21.8235 14.199 17.1413C17.615 12.4588 23.6652 10.5202 29.1668 12.3444V15.6212L26.2173 21.0357C25.824 20.9076 25.4136 20.8393 25 20.8332C22.6989 20.8332 20.8332 22.699 20.8332 25C20.8332 27.301 22.6989 29.1668 25 29.1668C25.4136 29.1607 25.824 29.0924 26.2173 28.9643L29.1668 34.3788ZM43.3334 27.5002C41.9525 27.5002 40.8333 26.3806 40.8333 25C40.8333 23.6194 41.9524 22.4998 43.3334 22.4998C44.714 22.4998 45.8332 23.6194 45.8332 25C45.8316 26.3802 44.7136 27.4986 43.3334 27.5002Z" fill="#1296DF"/>
</g>
<defs>
<clipPath id="clip0_1368_692">
<rect width="50" height="50" fill="white"/>
</clipPath>
</defs>
</svg>