<svg width="51" height="51" viewBox="0 0 51 51" fill="none" xmlns="http://www.w3.org/2000/svg">
<g clip-path="url(#clip0_1359_818)">
<path d="M13.7452 33.7199C13.7272 33.2276 13.7092 32.7324 13.6912 32.2401C13.7272 32.2101 13.7992 32.1681 13.7932 32.1471C13.7692 32.066 13.7212 31.994 13.6822 31.9189C12.0133 31.7208 10.3084 30.9464 8.81966 32.5523C8.01224 33.4227 6.7816 33.2726 6.05822 32.3902C5.29883 31.4657 5.40388 30.5322 6.18128 29.7038C6.91066 28.9294 8.18633 29.0194 8.98474 29.8208C9.60006 30.4362 12.7727 30.9704 13.403 30.5472C13.5111 30.4752 13.5951 30.3341 13.6342 30.205C13.6762 30.067 13.6432 29.9079 13.6552 29.7578C14.0034 25.5826 14.0034 25.5826 9.88821 25.5826C8.69059 25.5826 7.49597 25.5766 6.29835 25.5856C5.2478 25.5947 4.27529 25.4746 3.41084 26.5221C2.71448 27.3686 1.54687 27.1615 0.790481 26.255C0.0911171 25.4206 0.118131 24.4901 0.877526 23.6977C1.63992 22.8992 2.5614 22.8722 3.44686 23.4936C3.79504 23.7397 4.02616 24.1509 4.31131 24.4871C4.40136 24.6792 4.50641 24.7182 4.63248 24.5171C7.62203 24.4871 10.6146 24.4541 13.6041 24.424C13.8323 24.388 13.9103 24.301 13.7092 24.1179C13.6912 22.8692 13.6342 21.6206 13.6702 20.3749C13.6912 19.6576 13.4661 19.3784 12.7367 19.4384C11.2749 19.5645 9.74714 19.0242 8.5165 20.54C7.88617 21.3174 6.71856 21.0143 6.0252 20.1648C5.28082 19.2494 5.38887 18.2768 6.22631 17.4844C7.03373 16.722 8.11429 16.662 8.76863 17.4934C10.0443 19.1083 11.7042 18.1238 13.1629 18.3939C13.5441 18.4659 13.6432 18.1688 13.6522 17.8266C13.6672 17.3284 13.7152 16.8331 13.7482 16.3378C13.9583 16.1698 13.9643 15.9506 13.9043 15.7165C14.4566 13.9606 15.7923 13.3273 17.4792 13.4053C18.4847 13.4503 18.7878 13.1352 18.7038 12.1597C18.5837 10.791 19.01 9.39523 17.6172 8.25163C16.8578 7.62731 17.086 6.4657 17.9654 5.75433C18.8839 5.01295 19.8684 5.08799 20.6518 5.91642C21.3932 6.69983 21.5043 7.82841 20.6788 8.47075C19.031 9.74941 19.9915 11.4033 19.7543 12.877C19.7093 13.1562 19.8744 13.3423 20.1746 13.3603C20.3246 13.3693 20.4747 13.3663 20.6248 13.3753C24.7579 13.6725 24.7579 13.6725 24.7579 9.5393C24.7579 8.29065 24.7669 7.042 24.7549 5.79335C24.7459 4.83886 24.866 3.9594 23.8635 3.188C22.993 2.51565 23.1521 1.34204 24.0226 0.561634C24.887 -0.212769 25.8805 -0.188756 26.697 0.648679C27.5194 1.48611 27.5734 2.6117 26.697 3.29305C25.8595 3.94139 25.8655 4.63475 25.8685 5.47219C25.8775 7.72036 25.9045 9.96853 25.8505 12.2167C25.8295 13.0871 26.0036 13.5584 26.9821 13.3933C27.2733 13.3453 27.5794 13.3873 27.8796 13.3873C31.1573 13.3873 31.3704 13.1022 30.9171 9.76142C30.8301 9.13109 30.3529 8.99602 30.0347 8.65084C29.2633 7.8074 29.2543 6.55575 30.0707 5.83538C30.9532 5.05497 31.8897 5.08499 32.7661 5.84738C33.6035 6.57676 33.6786 7.87944 32.7661 8.62383C31.1843 9.9175 32.2048 11.5804 31.9887 13.0541C31.9227 13.5074 32.514 13.3573 32.8321 13.3783C35.9568 13.5854 36.7102 14.3178 36.7072 17.3374C36.7072 18.1628 36.8843 18.514 37.7667 18.4329C38.5591 18.3609 39.3635 18.4059 40.162 18.4209C40.7232 18.4329 41.1255 18.3519 41.5397 17.8206C42.3711 16.7551 43.5537 16.692 44.4092 17.4814C45.2316 18.2378 45.2856 19.4955 44.5322 20.2969C43.7248 21.1553 42.4612 21.0683 41.5187 20.0868C41.0414 19.5885 37.6136 19.1443 37.1574 19.5375C36.8963 19.7626 36.9863 20.0928 36.9833 20.3869C36.9593 21.6356 36.9473 22.8812 36.9293 24.1299C36.7252 24.313 36.8062 24.397 37.0343 24.433C40.0239 24.4631 43.0164 24.4961 46.006 24.5261C46.1321 24.7302 46.2371 24.6882 46.3272 24.4961C46.9215 23.4816 47.7229 22.8332 48.9655 23.2084C49.797 23.4605 50.2682 24.0669 50.2952 24.9673C50.3222 25.9278 49.866 26.5972 48.9655 26.8733C47.7229 27.2515 46.9245 26.5972 46.3272 25.5856C46.2371 25.3905 46.1321 25.3545 46.006 25.5556C43.0164 25.5856 40.0239 25.6157 37.0343 25.6487C36.8062 25.6847 36.7282 25.7717 36.9293 25.9548C36.9473 27.2035 37.0043 28.4491 36.9653 29.6948C36.9443 30.4092 37.1604 30.6943 37.8928 30.6313C39.3545 30.5052 40.8793 31.0425 42.107 29.5327C42.7403 28.7523 43.9169 29.0675 44.6073 29.9049C45.3547 30.8144 45.2466 31.7839 44.4032 32.5793C43.5927 33.3447 42.5182 33.4017 41.8638 32.5733C40.5882 30.9584 38.9313 31.9339 37.4696 31.6788C36.9593 31.5888 37.0193 32.039 36.9803 32.3902C36.5751 35.95 36.368 36.1511 32.598 36.6914C32.3519 36.7274 32.1088 36.6914 31.9647 36.9616C31.6645 37.5199 32.0427 40.9116 32.544 41.3649C33.5675 42.2893 33.4325 43.3219 32.7241 44.2403C32.0667 45.0958 30.674 44.9517 29.9416 44.1203C29.2033 43.2799 29.3443 42.1423 30.2958 41.2178C30.7701 40.7585 31.1663 37.6219 30.8601 36.9886C30.683 36.6254 30.3799 36.7214 30.1037 36.6944C25.8775 36.2772 25.8775 36.2802 25.8775 40.4314C25.8775 41.629 25.8655 42.8296 25.8805 44.0272C25.8955 45.0718 25.7124 46.0653 26.796 46.9237C27.6605 47.6111 27.4654 48.7847 26.5739 49.5441C25.6884 50.2975 24.6979 50.2465 23.9055 49.391C23.1131 48.5356 23.0771 47.41 23.9775 46.7497C24.803 46.1433 24.7609 45.477 24.7639 44.7056C24.773 42.4094 24.7219 40.1102 24.794 37.817C24.824 36.8655 24.5088 36.5534 23.6143 36.6884C23.3712 36.7244 23.1161 36.6944 22.867 36.6944C19.6313 36.6944 19.6493 36.6944 19.7273 39.9091C19.7423 40.5124 19.9194 40.8846 20.3937 41.2808C21.3662 42.0972 21.4352 43.3819 20.6728 44.1773C19.9104 44.9757 18.6558 44.9937 17.8544 44.2193C16.9749 43.3699 17.0739 42.2143 18.1155 41.2238C18.5927 40.7675 19.022 37.3278 18.6198 36.8865C18.2716 36.5053 17.7763 36.7244 17.3501 36.7034C15.7232 36.6224 14.4446 36.0521 13.9223 34.3622C13.9673 34.1101 13.9583 33.891 13.7452 33.7199ZM14.7748 16.3258C14.7357 16.3558 14.6637 16.3889 14.6667 16.4129C14.6787 16.4939 14.7147 16.569 14.7417 16.647C14.7417 22.2359 14.7417 27.8278 14.7417 33.4167C14.7087 33.4497 14.6367 33.4948 14.6457 33.5128C14.6787 33.5938 14.7297 33.6628 14.7748 33.7379C15.156 35.1066 16.0864 35.5898 17.4611 35.5808C22.6959 35.5478 27.9336 35.5478 33.1683 35.5808C34.543 35.5898 35.4765 35.1036 35.8577 33.7379C35.8967 33.7079 35.9718 33.6749 35.9688 33.6508C35.9568 33.5698 35.9207 33.4948 35.8937 33.4167C35.8937 27.8278 35.8937 22.2359 35.8937 16.647C35.9268 16.614 35.9988 16.569 35.9898 16.5509C35.9568 16.4699 35.9057 16.4009 35.8607 16.3258C35.4795 14.9601 34.549 14.4739 33.1713 14.4829C27.9366 14.5159 22.7019 14.5189 17.4672 14.4799C16.0804 14.4709 15.171 14.9811 14.7748 16.3258ZM48.2211 24.1569C47.8099 24.313 47.2486 24.5771 47.2877 25.0664C47.3237 25.5076 47.8159 25.9038 48.3592 25.8948C48.9535 25.8858 49.2837 25.4866 49.2177 24.9223C49.1636 24.4481 48.8185 24.1419 48.2211 24.1569ZM25.4513 2.83982C25.8985 2.7978 26.1747 2.47663 26.1837 1.97537C26.1927 1.44409 25.8265 1.13193 25.3432 1.12893C24.779 1.12593 24.3918 1.47411 24.4548 2.07442C24.5058 2.56368 24.824 2.86683 25.4513 2.83982ZM3.1377 25.0153C3.08367 24.5111 2.82554 24.1779 2.29726 24.1599C1.75998 24.1419 1.43582 24.4901 1.4118 24.9733C1.38179 25.5406 1.72397 25.9248 2.32428 25.9038C2.84655 25.8828 3.10168 25.5316 3.1377 25.0153ZM43.2956 31.961C43.6678 31.8979 43.9499 31.6068 43.9409 31.0905C43.9319 30.5622 43.5837 30.2441 43.1095 30.2561C42.5662 30.2681 42.167 30.6493 42.23 31.2166C42.2841 31.6758 42.6202 31.997 43.2956 31.961ZM26.2077 47.9743C26.0816 47.6201 25.9165 47.2209 25.3523 47.2209C24.7369 47.2209 24.4278 47.5751 24.4548 48.1484C24.4788 48.6677 24.86 48.9618 25.3553 48.9348C25.8445 48.9108 26.1627 48.6016 26.2077 47.9743ZM32.2438 7.26712C32.2438 6.73885 31.9587 6.4477 31.4484 6.40867C30.9171 6.36665 30.575 6.69983 30.545 7.16807C30.5089 7.71435 30.8751 8.11656 31.4364 8.11656C31.9197 8.11957 32.2378 7.8044 32.2438 7.26712ZM8.42045 31.1205C8.3214 30.5532 7.96721 30.2411 7.50797 30.2531C6.95869 30.2711 6.61351 30.6613 6.70055 31.2436C6.77259 31.7388 7.10877 32.021 7.63704 31.958C8.15331 31.8979 8.36642 31.5437 8.42045 31.1205ZM32.2558 42.7486C32.3639 42.2413 31.8326 42.0402 31.4784 41.9712C30.9201 41.8631 30.554 42.3013 30.545 42.8416C30.5359 43.3249 30.8631 43.658 31.3884 43.652C31.8957 43.646 32.2048 43.3879 32.2558 42.7486ZM20.1115 7.21309C19.9855 6.75385 19.7694 6.39667 19.2261 6.41168C18.7068 6.42668 18.4066 6.68782 18.3946 7.2221C18.3826 7.83141 18.7458 8.14358 19.2981 8.10756C19.7814 8.07454 20.0485 7.70235 20.1115 7.21309ZM8.42945 18.8952C8.29739 18.4449 8.06626 18.0787 7.52899 18.0998C6.91667 18.1238 6.64953 18.499 6.70356 19.0723C6.75458 19.5915 7.12377 19.8707 7.61303 19.8046C8.08728 19.7476 8.38443 19.4114 8.42945 18.8952ZM43.1515 19.8587C43.4667 19.7086 43.9049 19.5945 43.9349 19.0392C43.9619 18.532 43.7428 18.1688 43.2145 18.1088C42.6202 18.0397 42.257 18.3819 42.224 18.9372C42.197 19.4384 42.5752 19.7086 43.1515 19.8587ZM19.166 43.652C19.7213 43.7001 20.0455 43.3609 20.0875 42.9047C20.1355 42.3614 19.7754 41.9472 19.2111 41.9502C18.7428 41.9532 18.3946 42.2383 18.3916 42.7846C18.3886 43.3129 18.6618 43.592 19.166 43.652Z" fill="#1296DF"/>
<path d="M13.91 15.7197C13.97 15.9538 13.961 16.173 13.7539 16.341C13.8049 16.1339 13.856 15.9268 13.91 15.7197Z" fill="#1296DF"/>
<path d="M13.7451 33.7197C13.9582 33.8878 13.9672 34.1099 13.9072 34.3501C13.8532 34.1399 13.7991 33.9298 13.7451 33.7197Z" fill="#1296DF"/>
<path d="M13.7095 24.1211C13.9137 24.3042 13.8326 24.3912 13.6045 24.4273C13.6405 24.3252 13.6765 24.2231 13.7095 24.1211Z" fill="#1296DF"/>
<path d="M37.0258 24.4272C36.8007 24.3912 36.7166 24.3071 36.9207 24.124C36.9568 24.2231 36.9928 24.3251 37.0258 24.4272Z" fill="#1296DF"/>
<path d="M4.63562 24.5203C4.50955 24.7214 4.4045 24.6823 4.31445 24.4902C4.42251 24.4992 4.52756 24.5082 4.63562 24.5203Z" fill="#1296DF"/>
<path d="M46.3212 24.4902C46.2311 24.6823 46.1261 24.7244 46 24.5203C46.1051 24.5082 46.2131 24.4992 46.3212 24.4902Z" fill="#1296DF"/>
<path d="M45.9971 25.5467C46.1231 25.3456 46.2282 25.3816 46.3182 25.5767C46.2132 25.5647 46.1051 25.5557 45.9971 25.5467Z" fill="#1296DF"/>
<path d="M36.9235 25.9429C36.7194 25.7598 36.8005 25.6727 37.0286 25.6367C36.9926 25.7388 36.9566 25.8408 36.9235 25.9429Z" fill="#1296DF"/>
<path d="M13.6855 31.9189C13.7246 31.994 13.7726 32.069 13.7966 32.1471C13.8026 32.1651 13.7306 32.2071 13.6946 32.2401C13.6885 32.1321 13.6885 32.027 13.6855 31.9189Z" fill="#1296DF"/>
<path d="M14.7751 16.3262C14.7631 16.4342 14.7541 16.5393 14.7421 16.6473C14.7151 16.5693 14.6761 16.4943 14.6671 16.4132C14.6641 16.3892 14.7361 16.3562 14.7751 16.3262Z" fill="#1296DF"/>
<path d="M35.8934 16.6473C35.8814 16.5393 35.8724 16.4342 35.8604 16.3262C35.9054 16.4012 35.9564 16.4732 35.9894 16.5513C35.9954 16.5693 35.9264 16.6143 35.8934 16.6473Z" fill="#1296DF"/>
<path d="M14.7414 33.417C14.7534 33.525 14.7624 33.6301 14.7744 33.7382C14.7293 33.6631 14.6753 33.5911 14.6453 33.513C14.6363 33.498 14.7083 33.45 14.7414 33.417Z" fill="#1296DF"/>
<path d="M35.8574 33.7382C35.8694 33.6301 35.8784 33.525 35.8904 33.417C35.9175 33.495 35.9565 33.5701 35.9655 33.6511C35.9715 33.6751 35.8964 33.7081 35.8574 33.7382Z" fill="#1296DF"/>
<path d="M28.3598 30.3431C27.2973 30.7393 26.667 30.5022 26.4659 29.3976C26.4058 29.0584 26.2047 28.7433 26.1537 28.4041C25.9826 27.2845 25.3163 26.9603 24.2687 27.1134C23.8785 27.1704 23.4643 27.1704 23.0741 27.1074C22.1166 26.9543 21.6093 27.3175 21.4262 28.278C21.3152 28.8573 21.018 29.3976 20.883 29.9739C20.7029 30.7243 20.1266 30.5472 19.6883 30.4752C18.977 30.3581 19.4242 29.8929 19.5293 29.5807C20.5498 26.5191 21.5943 23.4665 22.5999 20.3989C22.798 19.7926 23.0621 19.5225 23.7525 19.5315C24.3948 19.5405 24.752 19.6936 24.9621 20.3239C26.0787 23.6646 27.2223 26.9933 28.3598 30.3431ZM23.7404 21.0683C23.1912 22.8152 22.7199 24.313 22.2487 25.8167C23.3322 25.8167 24.2867 25.8167 25.3103 25.8167C24.791 24.2499 24.3137 22.8032 23.7404 21.0683Z" fill="#1296DF"/>
<path d="M29.993 25.0452C29.993 23.5054 29.999 21.9656 29.99 20.4228C29.987 19.9545 29.954 19.5523 30.6444 19.5403C31.3707 19.5283 31.4308 19.9065 31.4278 20.4708C31.4128 23.5024 31.4158 26.534 31.4248 29.5655C31.4278 30.1058 31.4218 30.523 30.6714 30.523C29.8459 30.523 29.996 29.9918 29.996 29.5175C29.987 28.0257 29.993 26.537 29.993 25.0452Z" fill="#1296DF"/>
</g>
<defs>
<clipPath id="clip0_1359_818">
<rect width="50" height="50.063" fill="white" transform="translate(0.290039)"/>
</clipPath>
</defs>
</svg>