<svg width="50" height="50" viewBox="0 0 50 50" fill="none" xmlns="http://www.w3.org/2000/svg">
<g clip-path="url(#clip0_1360_990)">
<path d="M15.7688 19.1725C14.9375 19.1725 14.1248 19.4191 13.4335 19.881C12.7422 20.3428 12.2035 20.9993 11.8853 21.7674C11.5672 22.5355 11.4839 23.3807 11.6461 24.1961C11.8083 25.0115 12.2086 25.7605 12.7965 26.3484C13.3844 26.9363 14.1334 27.3366 14.9488 27.4988C15.7642 27.661 16.6094 27.5777 17.3775 27.2596C18.1456 26.9414 18.8021 26.4027 19.2639 25.7114C19.7258 25.0201 19.9724 24.2074 19.9724 23.376C19.9711 22.2616 19.5279 21.1931 18.7398 20.4051C17.9518 19.617 16.8833 19.1738 15.7688 19.1725ZM15.7688 26.0171C15.2465 26.0171 14.7359 25.8622 14.3016 25.572C13.8673 25.2818 13.5288 24.8693 13.3289 24.3867C13.129 23.9041 13.0767 23.3731 13.1786 22.8608C13.2805 22.3485 13.532 21.8779 13.9014 21.5086C14.2707 21.1392 14.7413 20.8877 15.2536 20.7858C15.7659 20.6839 16.2969 20.7362 16.7795 20.9361C17.2621 21.136 17.6746 21.4745 17.9648 21.9088C18.255 22.3431 18.4099 22.8537 18.4099 23.376C18.4091 24.0762 18.1306 24.7475 17.6354 25.2426C17.1403 25.7378 16.469 26.0163 15.7688 26.0171ZM34.2312 19.1725C33.3998 19.1725 32.5871 19.4191 31.8958 19.881C31.2045 20.3428 30.6658 20.9993 30.3476 21.7674C30.0295 22.5355 29.9462 23.3807 30.1084 24.1961C30.2706 25.0115 30.6709 25.7605 31.2588 26.3484C31.8467 26.9363 32.5957 27.3366 33.4111 27.4988C34.2265 27.661 35.0717 27.5777 35.8398 27.2596C36.6079 26.9414 37.2644 26.4027 37.7262 25.7114C38.1881 25.0201 38.4347 24.2074 38.4347 23.376C38.4334 22.2616 37.9901 21.1932 37.2021 20.4051C36.4141 19.6171 35.3456 19.1738 34.2312 19.1725ZM34.2312 26.0171C33.7088 26.0171 33.1982 25.8622 32.7639 25.572C32.3296 25.2818 31.9911 24.8693 31.7912 24.3867C31.5913 23.9041 31.539 23.3731 31.6409 22.8608C31.7428 22.3485 31.9943 21.8779 32.3637 21.5086C32.733 21.1392 33.2036 20.8877 33.7159 20.7858C34.2282 20.6839 34.7592 20.7362 35.2418 20.9361C35.7244 21.136 36.1369 21.4745 36.4271 21.9088C36.7173 22.3431 36.8722 22.8537 36.8722 23.376C36.8714 24.0762 36.5929 24.7475 36.0977 25.2426C35.6026 25.7378 34.9313 26.0163 34.2312 26.0171ZM30.9387 32.6248C30.9917 32.7126 31.027 32.81 31.0424 32.9115C31.0578 33.0129 31.053 33.1164 31.0285 33.216C31.0039 33.3156 30.9599 33.4094 30.899 33.4921C30.8382 33.5747 30.7617 33.6445 30.6738 33.6975C28.9631 34.7351 27.0005 35.2838 24.9997 35.2838C22.9989 35.2838 21.0364 34.7351 19.3256 33.6975C19.1482 33.5904 19.0208 33.4171 18.9711 33.2159C18.9215 33.0148 18.9539 32.8021 19.061 32.6248C19.1682 32.4474 19.3414 32.3199 19.5426 32.2703C19.7438 32.2207 19.9565 32.2531 20.1338 32.3602C21.6009 33.25 23.2839 33.7205 24.9997 33.7205C26.7155 33.7205 28.3985 33.25 29.8656 32.3602C29.9534 32.3071 30.0509 32.2718 30.1523 32.2564C30.2538 32.2409 30.3573 32.2456 30.457 32.2702C30.5566 32.2947 30.6504 32.3387 30.7331 32.3996C30.8158 32.4604 30.8856 32.5369 30.9387 32.6248ZM47.3988 15.6546H45.9911V14.3002C45.9901 13.3798 45.624 12.4974 44.9732 11.8465C44.3223 11.1957 43.4399 10.8296 42.5195 10.8286H25.7812V7.35789C26.6208 7.16586 27.3602 6.67138 27.8583 5.96885C28.3564 5.26631 28.5783 4.40494 28.4817 3.54918C28.3851 2.69342 27.9767 1.90321 27.3344 1.32943C26.6922 0.755644 25.8612 0.438477 25 0.438477C24.1388 0.438477 23.3078 0.755644 22.6656 1.32943C22.0233 1.90321 21.6149 2.69342 21.5183 3.54918C21.4217 4.40494 21.6436 5.26631 22.1417 5.96885C22.6398 6.67138 23.3792 7.16586 24.2188 7.35789V10.8286H7.48047C6.56007 10.8296 5.67766 11.1957 5.02683 11.8465C4.37601 12.4974 4.00992 13.3798 4.00889 14.3002V15.6546H2.60117C1.91159 15.6553 1.25046 15.9296 0.762825 16.4172C0.275187 16.9048 0.000852948 17.5659 0 18.2554L0 34.7952C0.000801217 35.4848 0.27511 36.146 0.762751 36.6336C1.25039 37.1213 1.91154 37.3956 2.60117 37.3964H4.00889V38.7503C4.00997 39.6706 4.37608 40.553 5.02689 41.2038C5.67771 41.8546 6.56009 42.2207 7.48047 42.2218H11.6243V48.7802C11.6243 48.9173 11.6604 49.052 11.729 49.1708C11.7976 49.2895 11.8962 49.3882 12.0149 49.4567C12.1337 49.5253 12.2684 49.5614 12.4056 49.5614C12.5427 49.5614 12.6774 49.5253 12.7962 49.4567L25.3277 42.2218H42.5195C43.4399 42.2207 44.3223 41.8546 44.9731 41.2038C45.6239 40.553 45.99 39.6706 45.9911 38.7503V37.3961H47.3988C48.0884 37.3953 48.7495 37.121 49.2371 36.6334C49.7248 36.1458 49.9991 35.4848 50 34.7952V18.2554C49.9991 17.5659 49.7248 16.9048 49.2372 16.4172C48.7495 15.9296 48.0884 15.6553 47.3988 15.6546ZM23.0587 3.94285C23.0587 3.5589 23.1726 3.18357 23.3859 2.86434C23.5992 2.54511 23.9024 2.2963 24.2572 2.14938C24.6119 2.00246 25.0022 1.96403 25.3788 2.03895C25.7554 2.11387 26.1013 2.29876 26.3727 2.57027C26.6442 2.84177 26.8291 3.18767 26.904 3.56425C26.9789 3.94082 26.9405 4.33115 26.7935 4.68587C26.6466 5.0406 26.3978 5.34378 26.0785 5.55709C25.7593 5.7704 25.384 5.88425 25 5.88425C24.4853 5.88371 23.9918 5.67899 23.6279 5.31502C23.2639 4.95105 23.0592 4.45756 23.0587 3.94285ZM2.60117 35.8336C2.32584 35.8333 2.06188 35.7238 1.86717 35.5291C1.67245 35.3345 1.56289 35.0705 1.5625 34.7952V18.2554C1.56289 17.9801 1.67245 17.7162 1.86717 17.5215C2.06188 17.3269 2.32584 17.2174 2.60117 17.2171H4.00889V35.8336H2.60117ZM44.4286 38.7503C44.428 39.2564 44.2267 39.7416 43.8688 40.0995C43.5109 40.4574 43.0257 40.6587 42.5195 40.6593H25.1185C24.9813 40.6593 24.8466 40.6954 24.7278 40.7639L13.1868 47.4269V41.4406C13.1868 41.2334 13.1045 41.0347 12.958 40.8882C12.8115 40.7417 12.6128 40.6594 12.4056 40.6594H7.48047C6.97432 40.6588 6.48907 40.4575 6.13117 40.0996C5.77327 39.7417 5.57196 39.2564 5.57139 38.7503V14.3002C5.57193 13.794 5.77324 13.3087 6.13114 12.9508C6.48905 12.5929 6.97432 12.3916 7.48047 12.3911H42.5195C43.0257 12.3916 43.511 12.5929 43.8689 12.9508C44.2268 13.3087 44.4281 13.794 44.4286 14.3002V38.7503ZM48.4375 34.7952C48.4372 35.0706 48.3277 35.3346 48.1329 35.5293C47.9382 35.724 47.6742 35.8336 47.3988 35.8339H45.9911V17.2171H47.3988C47.6742 17.2174 47.9381 17.3269 48.1328 17.5215C48.3275 17.7162 48.4371 17.9801 48.4375 18.2554V34.7952Z" fill="#1296DF"/>
</g>
<defs>
<clipPath id="clip0_1360_990">
<rect width="50" height="50" fill="white"/>
</clipPath>
</defs>
</svg>