<svg width="50" height="50" viewBox="0 0 50 50" fill="none" xmlns="http://www.w3.org/2000/svg">
<g clip-path="url(#clip0_1360_980)">
<path fill-rule="evenodd" clip-rule="evenodd" d="M24.985 38.8696C16.0512 38.8696 7.70322 33.7143 3.28026 25.3664C3.16309 25.1613 3.16309 24.927 3.28026 24.6634C7.7618 16.3447 16.0805 11.1602 24.985 11.1602C33.8895 11.1602 42.2375 16.3447 46.719 24.6634C46.8362 24.8684 46.8362 25.1027 46.719 25.3664C42.2375 33.7143 33.8895 38.8696 24.985 38.8696ZM4.65694 24.9856C8.93345 32.6892 16.6663 37.4343 24.9557 37.4343C33.2451 37.4343 40.978 32.6892 45.2545 24.9856C41.0073 17.3113 33.2451 12.5954 24.985 12.5954C16.6956 12.5954 8.96274 17.3113 4.65694 24.9856Z" fill="#1296DF"/>
<path fill-rule="evenodd" clip-rule="evenodd" d="M33.4504 14.2063C33.0403 14.2063 32.7181 13.8841 32.7181 13.474V8.49452C32.7181 8.08444 33.0403 7.76224 33.4504 7.76224H39.7187C40.0409 6.41484 41.2125 5.41895 42.6478 5.41895C44.3174 5.41895 45.6648 6.76634 45.6648 8.43593C45.6648 10.1055 44.3174 11.4529 42.6478 11.4529C41.2125 11.4529 40.0409 10.4863 39.7187 9.13892H34.1534V13.474C34.1534 13.8841 33.8312 14.2063 33.4504 14.2063ZM42.6185 6.8835C41.7398 6.8835 41.0075 7.61578 41.0075 8.49452C41.0075 9.34396 41.7105 10.0762 42.6185 10.0762C43.4972 10.0762 44.2002 9.37325 44.2002 8.49452C44.2002 7.58649 43.4972 6.8835 42.6185 6.8835ZM16.4908 14.2063C16.0807 14.2063 15.7585 13.8841 15.7585 13.474V9.2268H10.2811C9.95886 10.5449 8.75793 11.5408 7.35195 11.5408C5.68235 11.5408 4.33496 10.1934 4.33496 8.52381C4.33496 6.85421 5.68235 5.50682 7.35195 5.50682C8.75793 5.50682 9.95886 6.47343 10.2811 7.82082H16.4908C16.9009 7.82082 17.2231 8.14302 17.2231 8.5531V13.474C17.1938 13.8841 16.8716 14.2063 16.4908 14.2063ZM7.29337 6.8835C6.41463 6.8835 5.71165 7.58649 5.71165 8.49452C5.71165 9.37325 6.41463 10.0762 7.29337 10.0762C8.20139 10.0762 8.87509 9.34396 8.87509 8.49452C8.87509 7.61578 8.20139 6.8835 7.29337 6.8835ZM24.9852 12.5953C24.5751 12.5953 24.2529 12.2731 24.2529 11.863V7.02996C24.2529 6.61988 24.5751 6.29768 24.9852 6.29768C25.3953 6.29768 25.7175 6.61988 25.7175 7.02996V11.863C25.6882 12.2731 25.366 12.5953 24.9852 12.5953Z" fill="#1296DF"/>
<path fill-rule="evenodd" clip-rule="evenodd" d="M24.9852 7.70357C22.847 7.70357 21.1188 6.00468 21.1188 3.83714C21.1188 1.69888 22.8763 -0.0292969 24.9852 -0.0292969C27.1235 -0.0292969 28.8517 1.72817 28.8517 3.83714C28.8224 6.00468 27.1235 7.70357 24.9852 7.70357ZM24.9852 1.40597C23.6085 1.40597 22.5541 2.46045 22.5541 3.83714C22.5541 5.18453 23.6671 6.29759 24.9852 6.29759C26.3326 6.29759 27.4457 5.18453 27.4457 3.83714C27.3871 2.48974 26.3033 1.40597 24.9852 1.40597ZM42.6185 44.5518C41.1832 44.5518 40.0116 43.5852 39.6894 42.2964H33.4504C33.0403 42.2964 32.7181 41.9449 32.7181 41.5641V36.5554C32.7181 36.1453 33.0403 35.8231 33.4504 35.8231C33.8604 35.8231 34.1826 36.1453 34.1826 36.5554V40.8612H39.7187C40.0409 39.5138 41.2125 38.5471 42.6478 38.5471C44.3174 38.5471 45.6648 39.8945 45.6648 41.5641C45.6062 43.2044 44.2881 44.5518 42.6185 44.5518ZM42.6185 39.9531C41.7398 39.9531 41.0075 40.6854 41.0075 41.5641C41.0075 42.4136 41.7105 43.1459 42.6185 43.1459C43.4972 43.1459 44.2002 42.4429 44.2002 41.5641C44.2002 40.6561 43.4972 39.9531 42.6185 39.9531ZM7.29336 44.5518C5.62377 44.5518 4.30566 43.2044 4.30566 41.5641C4.30566 39.8945 5.62377 38.5471 7.29336 38.5471C8.72863 38.5471 9.90027 39.5138 10.2225 40.8612H15.7585V36.5554C15.7585 36.1453 16.0807 35.8231 16.4908 35.8231C16.9009 35.8231 17.2231 36.1453 17.2231 36.5554V41.5641C17.2231 41.9449 16.9009 42.2964 16.4908 42.2964H10.2811C9.95886 43.5852 8.72863 44.5518 7.29336 44.5518ZM7.29336 39.9531C6.41463 39.9531 5.71164 40.6561 5.71164 41.5641C5.71164 42.4136 6.44392 43.1459 7.29336 43.1459C8.14281 43.1459 8.87508 42.4136 8.87508 41.5641C8.93367 40.6561 8.20139 39.9531 7.29336 39.9531ZM24.9852 43.7024C24.5751 43.7024 24.2529 43.3802 24.2529 42.9701V38.1371C24.2529 37.727 24.5751 37.4048 24.9852 37.4048C25.3953 37.4048 25.7175 37.727 25.7175 38.1371V42.9701C25.6882 43.4095 25.366 43.7024 24.9852 43.7024Z" fill="#1296DF"/>
<path fill-rule="evenodd" clip-rule="evenodd" d="M24.9847 50.0003C22.8464 50.0003 21.1183 48.3014 21.1183 46.1339C21.1183 43.9956 22.8757 42.2967 24.9847 42.2967C27.1229 42.2967 28.8511 44.0249 28.8511 46.1339C28.8218 48.3014 27.1229 50.0003 24.9847 50.0003ZM24.9847 43.7027C23.608 43.7027 22.5535 44.7572 22.5535 46.1339C22.5535 47.4813 23.6666 48.5943 24.9847 48.5943C26.3321 48.5943 27.4451 47.4813 27.4451 46.1339C27.3866 44.8158 26.3028 43.7027 24.9847 43.7027ZM24.9847 33.4215C20.3274 33.4215 16.5781 29.643 16.5781 24.9857C16.5781 20.3577 20.3567 16.6084 24.9847 16.6084C29.642 16.6084 33.362 20.3577 33.362 24.9857C33.362 29.643 29.5834 33.4215 24.9847 33.4215ZM24.9847 18.0437C21.1183 18.0437 17.9841 21.1778 17.9841 24.9857C17.9841 28.8521 21.1183 31.9863 24.9847 31.9863C28.8218 31.9863 31.956 28.8521 31.956 24.9857C31.956 21.1778 28.8218 18.0437 24.9847 18.0437Z" fill="#1296DF"/>
<path fill-rule="evenodd" clip-rule="evenodd" d="M19.8299 25.7175C19.4199 25.7175 19.0977 25.3953 19.0977 24.9852C19.0977 21.7925 21.7339 19.1855 24.9559 19.1855C25.366 19.1855 25.6882 19.5077 25.6882 19.9178C25.6882 20.3279 25.366 20.6501 24.9559 20.6501C22.5247 20.6501 20.5329 22.6419 20.5329 25.0438C20.5329 25.3953 20.1814 25.7175 19.8299 25.7175Z" fill="#1296DF"/>
</g>
<defs>
<clipPath id="clip0_1360_980">
<rect width="50" height="50" fill="white"/>
</clipPath>
</defs>
</svg>