<svg width="50" height="50" viewBox="0 0 50 50" fill="none" xmlns="http://www.w3.org/2000/svg">
<path d="M33.25 14.2812C33.457 14.2812 33.6562 14.1992 33.8023 14.0523L42.9484 4.90625H44.3312C44.4919 5.3619 44.7895 5.75669 45.1834 6.03644C45.5773 6.31619 46.0481 6.4672 46.5312 6.46875C47.8234 6.46875 48.875 5.41719 48.875 4.125C48.875 2.83281 47.8234 1.78125 46.5312 1.78125C46.0481 1.7828 45.5773 1.93381 45.1834 2.21356C44.7895 2.49331 44.4919 2.8881 44.3312 3.34375H42.625C42.5224 3.34364 42.4208 3.36381 42.326 3.40309C42.2312 3.44238 42.1451 3.5 42.0727 3.57266L32.9266 12.7188H31.6875V11.9375C31.6875 10.6453 30.6359 9.59375 29.3438 9.59375C28.0516 9.59375 27 10.6453 27 11.9375V14.2812H23.0148C22.8335 13.3997 22.3539 12.6075 21.6567 12.0383C20.9596 11.4691 20.0875 11.1576 19.1875 11.1562C18.2094 11.1562 17.325 11.5305 16.6391 12.1266L9.40781 6.60469C9.67066 6.07688 9.80909 5.49587 9.8125 4.90625C9.8125 2.75234 8.06016 1 5.90625 1C3.75234 1 2 2.75234 2 4.90625C2 7.06016 3.75234 8.8125 5.90625 8.8125C6.88438 8.8125 7.76875 8.43828 8.45469 7.84219L15.6859 13.3641C15.5391 13.6545 15.4296 13.9625 15.3602 14.2805H9.73359C9.552 13.3991 9.07226 12.6072 8.37514 12.0382C7.67803 11.4691 6.80613 11.1577 5.90625 11.1562C3.75234 11.1562 2 12.9086 2 15.0625C2 17.2164 3.75234 18.9688 5.90625 18.9688C6.88438 18.9688 7.76875 18.5945 8.45469 17.9984L11.2594 20.1406L8.45469 22.2828C7.76875 21.6867 6.88438 21.3125 5.90625 21.3125C3.75234 21.3125 2 23.0648 2 25.2188C2 27.3727 3.75234 29.125 5.90625 29.125C6.88438 29.125 7.76875 28.7508 8.45469 28.1547L11.2594 30.2969L8.45469 32.4391C7.76875 31.843 6.88438 31.4688 5.90625 31.4688C3.75234 31.4688 2 33.2211 2 35.375C2 37.5289 3.75234 39.2812 5.90625 39.2812C6.80624 39.2798 7.67823 38.9682 8.37536 38.399C9.07248 37.8298 9.55216 37.0378 9.73359 36.1562H15.3602C15.4266 36.4805 15.5445 36.7828 15.6859 37.0727L8.45469 42.5945C7.76875 41.9992 6.88438 41.625 5.90625 41.625C3.75234 41.625 2 43.3773 2 45.5312C2 47.6852 3.75234 49.4375 5.90625 49.4375C8.06016 49.4375 9.8125 47.6852 9.8125 45.5312C9.8125 44.9203 9.65938 44.3492 9.40781 43.8336L16.6391 38.3117C17.325 38.907 18.2094 39.2812 19.1875 39.2812C20.0875 39.2798 20.9595 38.9682 21.6566 38.399C22.3537 37.8298 22.8334 37.0378 23.0148 36.1562H27V37.7188C27 39.0109 28.0516 40.0625 29.3438 40.0625C30.6359 40.0625 31.6875 39.0109 31.6875 37.7188H32.9266L42.0727 46.8648C42.1451 46.9375 42.2312 46.9951 42.326 47.0344C42.4208 47.0737 42.5224 47.0939 42.625 47.0938H44.3312C44.4919 47.5494 44.7895 47.9442 45.1834 48.2239C45.5773 48.5037 46.0481 48.6547 46.5312 48.6562C47.8234 48.6562 48.875 47.6047 48.875 46.3125C48.875 45.0203 47.8234 43.9688 46.5312 43.9688C46.0481 43.9703 45.5773 44.1213 45.1834 44.4011C44.7895 44.6808 44.4919 45.0756 44.3312 45.5312H42.9484L33.8023 36.3852C33.7299 36.3125 33.6438 36.2549 33.549 36.2156C33.4542 36.1763 33.3526 36.1561 33.25 36.1562H31.6875V33.8125H35.2703L41.2914 39.8336C41.3639 39.9062 41.45 39.9639 41.5447 40.0032C41.6395 40.0424 41.7411 40.0626 41.8438 40.0625H44.3312C44.4919 40.5182 44.7895 40.9129 45.1834 41.1927C45.5773 41.4724 46.0481 41.6235 46.5312 41.625C47.8234 41.625 48.875 40.5734 48.875 39.2812C48.875 37.9891 47.8234 36.9375 46.5312 36.9375C46.0481 36.939 45.5773 37.0901 45.1834 37.3698C44.7895 37.6496 44.4919 38.0443 44.3312 38.5H42.1672L36.1461 32.4789C36.0736 32.4062 35.9875 32.3486 35.8928 32.3093C35.798 32.2701 35.6964 32.2499 35.5938 32.25H31.6875V29.9062H38.3953L41.2914 32.8023C41.3639 32.875 41.45 32.9326 41.5447 32.9719C41.6395 33.0112 41.7411 33.0314 41.8438 33.0312H44.3312C44.4919 33.4869 44.7895 33.8817 45.1834 34.1614C45.5773 34.4412 46.0481 34.5922 46.5312 34.5938C47.8234 34.5938 48.875 33.5422 48.875 32.25C48.875 30.9578 47.8234 29.9062 46.5312 29.9062C46.0481 29.9078 45.5773 30.0588 45.1834 30.3386C44.7895 30.6183 44.4919 31.0131 44.3312 31.4688H42.1672L39.2711 28.5727C39.1986 28.5 39.1125 28.4424 39.0178 28.4031C38.923 28.3638 38.8214 28.3436 38.7188 28.3438H31.6875V26H44.3312C44.4919 26.4557 44.7895 26.8504 45.1834 27.1302C45.5773 27.4099 46.0481 27.561 46.5312 27.5625C47.8234 27.5625 48.875 26.5109 48.875 25.2188C48.875 23.9266 47.8234 22.875 46.5312 22.875C46.0481 22.8765 45.5773 23.0276 45.1834 23.3073C44.7895 23.5871 44.4919 23.9818 44.3312 24.4375H31.6875V22.0938H38.7188C38.9258 22.0938 39.125 22.0117 39.2711 21.8648L42.1672 18.9688H44.3312C44.4919 19.4244 44.7895 19.8192 45.1834 20.0989C45.5773 20.3787 46.0481 20.5297 46.5312 20.5312C47.8234 20.5312 48.875 19.4797 48.875 18.1875C48.875 16.8953 47.8234 15.8438 46.5312 15.8438C46.0481 15.8453 45.5773 15.9963 45.1834 16.2761C44.7895 16.5558 44.4919 16.9506 44.3312 17.4062H41.8438C41.7411 17.4061 41.6395 17.4263 41.5447 17.4656C41.45 17.5049 41.3639 17.5625 41.2914 17.6352L38.3953 20.5312H31.6875V18.1875H35.5938C35.8008 18.1875 36 18.1055 36.1461 17.9586L42.1672 11.9375H44.3312C44.4919 12.3931 44.7895 12.7879 45.1834 13.0677C45.5773 13.3474 46.0481 13.4985 46.5312 13.5C47.8234 13.5 48.875 12.4484 48.875 11.1562C48.875 9.86406 47.8234 8.8125 46.5312 8.8125C46.0481 8.81405 45.5773 8.96506 45.1834 9.24481C44.7895 9.52456 44.4919 9.91935 44.3312 10.375H41.8438C41.7411 10.3749 41.6395 10.3951 41.5447 10.4343C41.45 10.4736 41.3639 10.5313 41.2914 10.6039L35.2703 16.625H31.6875V14.2812H33.25ZM46.5312 3.34375C46.686 3.3436 46.8373 3.38935 46.966 3.47522C47.0947 3.56109 47.1951 3.68322 47.2544 3.82615C47.3137 3.96908 47.3292 4.12638 47.2991 4.27816C47.2689 4.42993 47.1944 4.56934 47.085 4.67876C46.9756 4.78818 46.8362 4.86267 46.6844 4.89282C46.5326 4.92297 46.3753 4.90742 46.2324 4.84813C46.0895 4.78885 45.9673 4.68849 45.8815 4.55977C45.7956 4.43104 45.7498 4.27974 45.75 4.125C45.75 3.69375 46.1008 3.34375 46.5312 3.34375ZM46.5312 45.5312C46.686 45.5311 46.8373 45.5768 46.966 45.6627C47.0947 45.7486 47.1951 45.8707 47.2544 46.0137C47.3137 46.1566 47.3292 46.3139 47.2991 46.4657C47.2689 46.6174 47.1944 46.7568 47.085 46.8663C46.9756 46.9757 46.8362 47.0502 46.6844 47.0803C46.5326 47.1105 46.3753 47.0949 46.2324 47.0356C46.0895 46.9763 45.9673 46.876 45.8815 46.7473C45.7956 46.6185 45.7498 46.4672 45.75 46.3125C45.75 45.8812 46.1008 45.5312 46.5312 45.5312ZM46.5312 38.5C46.686 38.4998 46.8373 38.5456 46.966 38.6315C47.0947 38.7173 47.1951 38.8395 47.2544 38.9824C47.3137 39.1253 47.3292 39.2826 47.2991 39.4344C47.2689 39.5862 47.1944 39.7256 47.085 39.835C46.9756 39.9444 46.8362 40.0189 46.6844 40.0491C46.5326 40.0792 46.3753 40.0637 46.2324 40.0044C46.0895 39.9451 45.9673 39.8447 45.8815 39.716C45.7956 39.5873 45.7498 39.436 45.75 39.2812C45.75 38.85 46.1008 38.5 46.5312 38.5ZM46.5312 31.4688C46.686 31.4686 46.8373 31.5143 46.966 31.6002C47.0947 31.6861 47.1951 31.8082 47.2544 31.9512C47.3137 32.0941 47.3292 32.2514 47.2991 32.4032C47.2689 32.5549 47.1944 32.6943 47.085 32.8038C46.9756 32.9132 46.8362 32.9877 46.6844 33.0178C46.5326 33.048 46.3753 33.0324 46.2324 32.9731C46.0895 32.9138 45.9673 32.8135 45.8815 32.6848C45.7956 32.556 45.7498 32.4047 45.75 32.25C45.75 31.8188 46.1008 31.4688 46.5312 31.4688ZM46.5312 24.4375C46.686 24.4373 46.8373 24.4831 46.966 24.569C47.0947 24.6548 47.1951 24.777 47.2544 24.9199C47.3137 25.0628 47.3292 25.2201 47.2991 25.3719C47.2689 25.5237 47.1944 25.6631 47.085 25.7725C46.9756 25.8819 46.8362 25.9564 46.6844 25.9866C46.5326 26.0167 46.3753 26.0012 46.2324 25.9419C46.0895 25.8826 45.9673 25.7822 45.8815 25.6535C45.7956 25.5248 45.7498 25.3735 45.75 25.2188C45.75 24.7875 46.1008 24.4375 46.5312 24.4375ZM46.5312 17.4062C46.686 17.4061 46.8373 17.4518 46.966 17.5377C47.0947 17.6236 47.1951 17.7457 47.2544 17.8886C47.3137 18.0316 47.3292 18.1889 47.2991 18.3407C47.2689 18.4924 47.1944 18.6318 47.085 18.7413C46.9756 18.8507 46.8362 18.9252 46.6844 18.9553C46.5326 18.9855 46.3753 18.9699 46.2324 18.9106C46.0895 18.8513 45.9673 18.751 45.8815 18.6223C45.7956 18.4935 45.7498 18.3422 45.75 18.1875C45.75 17.7563 46.1008 17.4062 46.5312 17.4062ZM46.5312 10.375C46.686 10.3748 46.8373 10.4206 46.966 10.5065C47.0947 10.5923 47.1951 10.7145 47.2544 10.8574C47.3137 11.0003 47.3292 11.1576 47.2991 11.3094C47.2689 11.4612 47.1944 11.6006 47.085 11.71C46.9756 11.8194 46.8362 11.8939 46.6844 11.9241C46.5326 11.9542 46.3753 11.9387 46.2324 11.8794C46.0895 11.8201 45.9673 11.7197 45.8815 11.591C45.7956 11.4623 45.7498 11.311 45.75 11.1562C45.75 10.725 46.1008 10.375 46.5312 10.375ZM23.0148 15.8438H27V24.4375H23.0148C22.8335 23.5559 22.3539 22.7638 21.6567 22.1946C20.9596 21.6253 20.0875 21.3138 19.1875 21.3125C18.2094 21.3125 17.325 21.6867 16.6391 22.2828L13.8344 20.1406L16.6391 17.9984C17.325 18.5945 18.2094 18.9688 19.1875 18.9688C20.0875 18.9673 20.9595 18.6557 21.6566 18.0865C22.3537 17.5173 22.8334 16.7253 23.0148 15.8438ZM16.8438 25.2188C16.8438 23.9266 17.8953 22.875 19.1875 22.875C20.4797 22.875 21.5312 23.9266 21.5312 25.2188C21.5312 26.5109 20.4797 27.5625 19.1875 27.5625C17.8953 27.5625 16.8438 26.5109 16.8438 25.2188ZM19.1875 12.7188C20.4797 12.7188 21.5312 13.7703 21.5312 15.0625C21.5312 16.3547 20.4797 17.4062 19.1875 17.4062C17.8953 17.4062 16.8438 16.3547 16.8438 15.0625C16.8438 13.7703 17.8953 12.7188 19.1875 12.7188ZM5.90625 7.25C4.61406 7.25 3.5625 6.19844 3.5625 4.90625C3.5625 3.61406 4.61406 2.5625 5.90625 2.5625C7.19844 2.5625 8.25 3.61406 8.25 4.90625C8.25 6.19844 7.19844 7.25 5.90625 7.25ZM5.90625 17.4062C4.61406 17.4062 3.5625 16.3547 3.5625 15.0625C3.5625 13.7703 4.61406 12.7188 5.90625 12.7188C7.19844 12.7188 8.25 13.7703 8.25 15.0625C8.25 16.3547 7.19844 17.4062 5.90625 17.4062ZM9.40781 16.7602C9.55469 16.4697 9.66416 16.1618 9.73359 15.8438H15.3602C15.4266 16.168 15.5445 16.4703 15.6859 16.7602L12.5469 19.1578L9.40781 16.7602ZM15.6859 23.5211C15.5391 23.8116 15.4296 24.1195 15.3602 24.4375H9.73359C9.66416 24.1195 9.55469 23.8116 9.40781 23.5211L12.5469 21.1242L15.6859 23.5211ZM5.90625 27.5625C4.61406 27.5625 3.5625 26.5109 3.5625 25.2188C3.5625 23.9266 4.61406 22.875 5.90625 22.875C7.19844 22.875 8.25 23.9266 8.25 25.2188C8.25 26.5109 7.19844 27.5625 5.90625 27.5625ZM9.40781 26.9164C9.55469 26.6259 9.66416 26.318 9.73359 26H15.3602C15.4266 26.3242 15.5445 26.6266 15.6859 26.9164L12.5469 29.3141L9.40781 26.9164ZM15.3602 34.5938H9.73359C9.66416 34.2757 9.55469 33.9678 9.40781 33.6773L12.5469 31.2805L15.6859 33.6773C15.5391 33.9678 15.4296 34.2757 15.3602 34.5938ZM5.90625 37.7188C4.61406 37.7188 3.5625 36.6672 3.5625 35.375C3.5625 34.0828 4.61406 33.0312 5.90625 33.0312C7.19844 33.0312 8.25 34.0828 8.25 35.375C8.25 36.6672 7.19844 37.7188 5.90625 37.7188ZM5.90625 47.875C4.61406 47.875 3.5625 46.8234 3.5625 45.5312C3.5625 44.2391 4.61406 43.1875 5.90625 43.1875C7.19844 43.1875 8.25 44.2391 8.25 45.5312C8.25 46.8234 7.19844 47.875 5.90625 47.875ZM19.1875 37.7188C17.8953 37.7188 16.8438 36.6672 16.8438 35.375C16.8438 34.0828 17.8953 33.0312 19.1875 33.0312C20.4797 33.0312 21.5312 34.0828 21.5312 35.375C21.5312 36.6672 20.4797 37.7188 19.1875 37.7188ZM23.0148 34.5938C22.8335 33.7122 22.3539 32.92 21.6567 32.3508C20.9596 31.7816 20.0875 31.4701 19.1875 31.4688C18.2094 31.4688 17.325 31.843 16.6391 32.4391L13.8344 30.2969L16.6391 28.1547C17.325 28.7508 18.2094 29.125 19.1875 29.125C20.0875 29.1235 20.9595 28.812 21.6566 28.2428C22.3537 27.6736 22.8334 26.8815 23.0148 26H27V34.5938H23.0148ZM30.125 37.7188C30.116 37.9199 30.0298 38.1098 29.8842 38.249C29.7387 38.3882 29.5451 38.4658 29.3438 38.4658C29.1424 38.4658 28.9488 38.3882 28.8033 38.249C28.6577 38.1098 28.5715 37.9199 28.5625 37.7188V11.9375C28.5715 11.7363 28.6577 11.5464 28.8033 11.4072C28.9488 11.2681 29.1424 11.1904 29.3438 11.1904C29.5451 11.1904 29.7387 11.2681 29.8842 11.4072C30.0298 11.5464 30.116 11.7363 30.125 11.9375V37.7188Z" fill="#1296DF"/>
<path d="M23.875 18.1875H25.4375V19.75H23.875V18.1875ZM23.875 21.3125H25.4375V22.875H23.875V21.3125ZM23.875 27.5625H25.4375V29.125H23.875V27.5625ZM23.875 30.6875H25.4375V32.25H23.875V30.6875Z" fill="#1296DF"/>
</svg>