<svg width="50" height="50" viewBox="0 0 50 50" fill="none" xmlns="http://www.w3.org/2000/svg">
<path d="M30.0733 1.54395C29.6321 1.54395 29.338 1.83806 29.338 2.27924V3.82336C29.338 4.26453 29.6321 4.55865 30.0733 4.55865C30.5144 4.55865 30.8086 4.26453 30.8086 3.82336V2.27924C30.8086 1.91159 30.5144 1.54395 30.0733 1.54395ZM35.2939 2.35277L34.1909 3.6763C33.9703 3.97042 33.9703 4.48512 34.2644 4.70571C34.5586 4.9263 35.0733 4.9263 35.2939 4.63218L36.3968 3.30865C36.6174 3.01453 36.6174 2.49983 36.3233 2.27924C36.0291 1.98512 35.588 2.05865 35.2939 2.35277ZM23.8233 2.27924C23.5291 2.57336 23.4556 3.01453 23.7497 3.30865L24.8527 4.63218C25.0733 4.9263 25.588 4.99983 25.8821 4.70571C26.1762 4.41159 26.2497 3.97042 25.9556 3.6763L24.8527 2.35277C24.6321 2.05865 24.1174 1.98512 23.8233 2.27924Z" fill="#1296DF"/>
<path d="M1.4707 12.4268V31.4709C1.4707 31.9121 1.76482 32.2062 2.206 32.2062C2.64717 32.2062 2.94129 31.9121 2.94129 31.4709V12.4268C2.94129 11.6179 3.60306 10.9562 4.41188 10.9562H13.9707C14.6325 10.9562 15.1472 11.3973 15.3678 11.9856L16.0295 13.9709C16.3972 15.2209 17.5736 16.0297 18.8236 16.0297H24.6325C26.3236 16.9121 28.1619 17.4268 30.0736 17.4268H30.1472C33.2354 17.4268 36.1031 16.1768 38.2354 14.0444L40.2942 11.9856C40.5883 11.6915 40.5883 11.2503 40.2942 10.9562L38.2354 8.89735C33.7501 4.48558 26.4707 4.48558 22.0589 8.97087L20.0001 11.0297C19.706 11.3238 19.706 11.765 20.0001 12.0591L22.0589 14.1179C22.206 14.265 22.4266 14.4121 22.5736 14.5591H18.8972C18.2354 14.5591 17.7207 14.1179 17.5001 13.5297L16.8383 11.5444C16.4707 10.2944 15.2942 9.48558 14.0442 9.48558H4.41188C2.79423 9.48558 1.4707 10.8091 1.4707 12.4268ZM21.4707 11.4709L23.0148 9.92676C26.9119 6.0297 33.2354 6.0297 37.1325 9.85323L38.6766 11.3973L37.1325 12.9415C35.2942 14.8532 32.7207 15.8826 30.0736 15.8826H30.0001C24.7795 15.8826 22.3531 12.1326 21.4707 11.4709Z" fill="#1296DF"/>
<path d="M48.5295 23.2347C48.5295 21.5435 47.1325 20.1465 45.4413 20.1465H43.1619C42.7207 20.1465 42.4266 20.4406 42.4266 20.8818C42.4266 21.323 42.7207 21.6171 43.1619 21.6171H45.4413C46.3236 21.6171 47.0589 22.3524 47.0589 23.2347V45.3671C47.0589 46.2494 46.3236 46.9847 45.4413 46.9847H40.5148V30.5877H43.1619V43.4553C43.1619 43.8965 43.456 44.1906 43.8972 44.1906C44.3383 44.1906 44.6325 43.8965 44.6325 43.4553V29.8524C44.6325 29.4112 44.3383 29.1171 43.8972 29.1171H39.7795C39.3383 29.1171 39.0442 29.4112 39.0442 29.8524V46.9112H36.4707V36.9112C36.4707 36.47 36.1766 36.1759 35.7354 36.1759H31.6178C31.1766 36.1759 30.8825 36.47 30.8825 36.9112V46.9847H24.1178V34.7053H26.7648V44.1906C26.7648 44.6318 27.0589 44.9259 27.5001 44.9259C27.9413 44.9259 28.2354 44.6318 28.2354 44.1906V33.97C28.2354 33.5288 27.9413 33.2347 27.5001 33.2347H23.3825C22.9413 33.2347 22.6472 33.5288 22.6472 33.97V46.9847H20.0736V40.8083C20.0736 40.3671 19.7795 40.073 19.3383 40.073H15.2207C14.7795 40.073 14.4854 40.3671 14.4854 40.8083V46.9847H10.5883C11.6178 46.0288 12.2795 44.6318 12.2795 43.0877V23.2347C12.2795 22.3524 13.0148 21.6171 13.8972 21.6171H35.7354C36.1766 21.6171 36.4707 21.323 36.4707 20.8818C36.4707 20.4406 36.1766 20.1465 35.7354 20.1465H13.8972C12.206 20.1465 10.8089 21.5435 10.8089 23.2347V43.0877C10.8089 45.22 9.04423 46.9847 6.91188 46.9847C4.77953 46.9847 2.94129 45.22 2.94129 43.0877V35.6612C2.94129 35.22 2.64717 34.9259 2.206 34.9259C1.76482 34.9259 1.4707 35.22 1.4707 35.6612V43.0877C1.4707 46.0288 3.89717 48.4553 6.83835 48.4553H45.4413C47.1325 48.4553 48.5295 47.0583 48.5295 45.3671V23.2347ZM15.956 41.5435H18.6031V46.9847H15.956V41.5435ZM32.3531 37.6465H35.0001V46.9847H32.3531V37.6465Z" fill="#1296DF"/>
<path d="M42.7204 19.0436C44.2645 19.0436 45.5145 17.7936 45.5145 16.2495C45.5145 14.7054 44.2645 13.4554 42.7204 13.4554C41.1762 13.4554 39.9262 14.7054 39.9262 16.2495C39.9262 16.9848 40.2204 17.6465 40.6615 18.0877L35.588 26.2495C35.2939 26.176 34.9998 26.1024 34.6321 26.1024C33.5292 26.1024 32.6468 26.6907 32.2057 27.6465L27.7939 26.323C27.7204 24.8524 26.5439 23.676 25.0733 23.676C23.5292 23.676 22.2792 24.926 22.2792 26.4701C22.2792 26.8377 22.3527 27.1318 22.4998 27.426L18.6027 32.426C18.2351 32.2054 17.7939 32.1318 17.3527 32.1318C15.8086 32.1318 14.5586 33.3818 14.5586 34.926C14.5586 36.4701 15.8086 37.7201 17.3527 37.7201C18.8968 37.7201 20.1468 36.4701 20.1468 34.926C20.1468 34.4112 19.9998 33.8965 19.7057 33.4554L23.3821 28.676C23.8233 29.0436 24.4115 29.2642 25.0733 29.2642C26.1027 29.2642 27.0586 28.676 27.4998 27.7936L31.9115 29.1171C31.9851 30.5877 33.2351 31.6907 34.6321 31.6907C36.1762 31.6907 37.4262 30.4407 37.4262 28.8965C37.4262 28.2348 37.2057 27.6465 36.7645 27.1318L41.9115 18.8965C42.1321 18.9701 42.4262 19.0436 42.7204 19.0436ZM42.7204 14.926C43.4557 14.926 44.0439 15.5142 44.0439 16.2495C44.0439 16.9848 43.4557 17.573 42.7204 17.573C41.9851 17.573 41.3968 16.9848 41.3968 16.2495C41.3968 15.5142 41.9851 14.926 42.7204 14.926ZM17.2792 36.176C16.5439 36.176 15.9557 35.5877 15.9557 34.8524C15.9557 34.1171 16.5439 33.5289 17.2792 33.5289C18.0145 33.5289 18.6027 34.1171 18.6027 34.8524C18.6027 35.5877 18.0145 36.176 17.2792 36.176ZM24.9998 27.7201C24.2645 27.7201 23.6762 27.1318 23.6762 26.3965C23.6762 25.6613 24.2645 25.073 24.9998 25.073C25.7351 25.073 26.3233 25.6613 26.3233 26.3965C26.3233 27.1318 25.7351 27.7201 24.9998 27.7201ZM34.6321 30.1465C33.8968 30.1465 33.3086 29.5583 33.3086 28.823C33.3086 28.0877 33.8968 27.4995 34.6321 27.4995C35.3674 27.4995 35.9557 28.0877 35.9557 28.823C35.9557 29.5583 35.3674 30.1465 34.6321 30.1465ZM29.9998 14.5583C31.6909 14.5583 33.088 13.1612 33.088 11.4701C33.088 9.7789 31.6909 8.38184 29.9998 8.38184C29.1909 8.38184 28.3821 8.67595 27.7939 9.26419C27.2057 9.85242 26.9115 10.5877 26.9115 11.4701C26.9851 13.1612 28.3086 14.5583 29.9998 14.5583ZM28.8968 10.3671C29.1909 10.073 29.6321 9.92595 29.9998 9.92595C30.8821 9.92595 31.6174 10.6612 31.6174 11.5436C31.6174 12.426 30.8821 13.1612 29.9998 13.1612C29.1174 13.1612 28.3821 12.426 28.3821 11.5436C28.3821 11.0289 28.6027 10.6612 28.8968 10.3671Z" fill="#1296DF"/>
</svg>