<svg width="50" height="50" viewBox="0 0 50 50" fill="none" xmlns="http://www.w3.org/2000/svg">
<g clip-path="url(#clip0_1360_916)">
<path d="M16.289 21.3828C16.4053 21.543 16.5781 21.653 16.7724 21.6907C16.9667 21.7285 17.1681 21.691 17.3359 21.5859C17.4981 21.4694 17.6096 21.2952 17.6474 21.099C17.6852 20.9029 17.6464 20.6997 17.539 20.5312C17.2289 20.0572 16.8277 19.6494 16.3589 19.3315C15.89 19.0136 15.3627 18.7919 14.8075 18.6792C14.2523 18.5666 13.6803 18.5653 13.1246 18.6753C12.5689 18.7853 12.0406 19.0046 11.5702 19.3203C11.4541 19.4496 11.3844 19.6139 11.3722 19.7873C11.36 19.9607 11.4059 20.1332 11.5027 20.2775C11.5995 20.4218 11.7417 20.5297 11.9068 20.5842C12.0718 20.6386 12.2503 20.6365 12.414 20.5781C12.7209 20.3753 13.0648 20.2352 13.4261 20.1658C13.7874 20.0965 14.1588 20.0993 14.5189 20.1741C14.8791 20.2489 15.2209 20.3942 15.5247 20.6016C15.8285 20.8091 16.0882 21.0745 16.289 21.3828ZM13.0155 32.4609C12.6554 32.3866 12.3135 32.2418 12.0095 32.0348C11.7056 31.8278 11.4455 31.5627 11.2444 31.2549C11.0433 30.947 10.905 30.6024 10.8376 30.2409C10.7702 29.8794 10.7749 29.5081 10.8515 29.1484C10.8298 28.9819 10.755 28.8268 10.6383 28.7061C10.5215 28.5854 10.3689 28.5056 10.2032 28.4784C10.0375 28.4512 9.86747 28.4782 9.71827 28.5552C9.56908 28.6323 9.44868 28.7554 9.37492 28.9062C9.25884 29.461 9.25408 30.0334 9.36092 30.59C9.46776 31.1467 9.68408 31.6766 9.99731 32.149C10.3105 32.6214 10.7145 33.0268 11.1857 33.3419C11.6568 33.657 12.1859 33.8754 12.7421 33.9844H12.8905C13.059 33.9546 13.2131 33.8703 13.3291 33.7445C13.445 33.6187 13.5165 33.4583 13.5325 33.2879C13.5484 33.1176 13.508 32.9467 13.4175 32.8015C13.3269 32.6564 13.1912 32.5449 13.0312 32.4844L13.0155 32.4609ZM17.1874 29.2187C17.2007 29.0996 17.1864 28.9791 17.1456 28.8664C17.1049 28.7537 17.0387 28.6519 16.9524 28.5689C16.866 28.4859 16.7616 28.4238 16.6474 28.3875C16.5332 28.3513 16.4122 28.3418 16.2937 28.3598C16.1752 28.3777 16.0625 28.4227 15.9642 28.4913C15.8659 28.5598 15.7847 28.65 15.7268 28.755C15.669 28.8599 15.636 28.9767 15.6306 29.0964C15.6251 29.2162 15.6472 29.3355 15.6952 29.4453C15.8293 30.4714 16.3305 31.4143 17.1061 32.0994C17.8817 32.7845 18.8792 33.1655 19.914 33.1719C20.123 33.1744 20.3319 33.1614 20.539 33.1328C20.7352 33.0983 20.9108 32.99 21.0299 32.8303C21.149 32.6706 21.2026 32.4713 21.1796 32.2734C21.1451 32.0772 21.0369 31.9016 20.8771 31.7825C20.7174 31.6634 20.5182 31.6099 20.3202 31.6328C19.5847 31.728 18.8414 31.5272 18.2539 31.0745C17.6664 30.6218 17.2828 29.9543 17.1874 29.2187Z" fill="#1296DF"/>
<path d="M47.148 30.4142C46.5249 30.4157 45.9195 30.6212 45.4243 30.9993C44.9291 31.3774 44.5714 31.9073 44.4058 32.5079H41.7886L37.8199 27.9532C37.7477 27.8733 37.6598 27.8091 37.5617 27.7647C37.4635 27.7204 37.3573 27.6968 37.2496 27.6954H26.6792V22.3282H37.2496C37.3573 22.3269 37.4635 22.3033 37.5617 22.2589C37.6598 22.2146 37.7477 22.1504 37.8199 22.0704L41.7886 17.5157H44.4058C44.5892 18.1831 45.0085 18.7613 45.5858 19.143C46.1632 19.5248 46.8594 19.6842 47.5453 19.5916C48.2312 19.4991 48.8602 19.1609 49.3158 18.6398C49.7713 18.1187 50.0223 17.45 50.0223 16.7579C50.0223 16.0658 49.7713 15.3972 49.3158 14.8761C48.8602 14.355 48.2312 14.0168 47.5453 13.9242C46.8594 13.8317 46.1632 13.9911 45.5858 14.3728C45.0085 14.7545 44.5892 15.3327 44.4058 16.0001H41.4449C41.3372 16.0014 41.2309 16.025 41.1328 16.0694C41.0346 16.1138 40.9467 16.178 40.8745 16.2579L36.9058 20.8126H26.6792V17.9689H36.5855C36.6943 17.9696 36.8019 17.9462 36.9005 17.9002C36.9992 17.8543 37.0864 17.787 37.1558 17.7032L39.9214 14.4532C40.0398 14.3168 40.1038 14.1416 40.1011 13.961V10.9376C40.7621 10.7543 41.3342 10.3377 41.7115 9.76493C42.0889 9.19215 42.2458 8.50203 42.1533 7.8224C42.0609 7.14277 41.7252 6.51968 41.2085 6.06856C40.6919 5.61744 40.0292 5.36886 39.3433 5.36886C38.6574 5.36886 37.9948 5.61744 37.4781 6.06856C36.9614 6.51968 36.6258 7.14277 36.5333 7.8224C36.4408 8.50203 36.5977 9.19215 36.9751 9.76493C37.3524 10.3377 37.9245 10.7543 38.5855 10.9376V13.7032L36.2417 16.4532H26.6792V12.8282H30.1402C30.2654 12.8289 30.389 12.7994 30.5005 12.7423C30.612 12.6852 30.7081 12.6022 30.7808 12.5001L31.7496 10.9376C32.0031 11.0144 32.2659 11.0565 32.5308 11.0626C33.096 11.0657 33.6494 10.9012 34.1211 10.5899C34.5929 10.2786 34.9618 9.83451 35.1813 9.31367C35.4008 8.79284 35.461 8.21864 35.3543 7.66361C35.2476 7.10857 34.9789 6.5976 34.582 6.19523C34.185 5.79286 33.6778 5.51715 33.1243 5.40292C32.5707 5.28868 31.9958 5.34105 31.472 5.55341C30.9482 5.76577 30.4991 6.12859 30.1814 6.59605C29.8637 7.0635 29.6917 7.61462 29.6871 8.1798C29.6903 8.89944 29.97 9.59031 30.4683 10.1095L29.6871 11.3126H26.6792V5.46105C26.6868 5.40662 26.6868 5.35141 26.6792 5.29699C26.2279 4.00134 25.3827 2.87924 24.262 2.08775C23.1414 1.29626 21.8012 0.874998 20.4292 0.882922C19.1593 0.892252 17.9187 1.26509 16.854 1.95734C15.7893 2.64958 14.9452 3.63227 14.4214 4.78917C13.436 4.48183 12.3921 4.41041 11.374 4.5807C10.3559 4.75098 9.39211 5.1582 8.56034 5.76948C7.72856 6.38077 7.05212 7.17901 6.58559 8.09981C6.11905 9.02061 5.87549 10.0382 5.87455 11.0704C5.87081 11.6757 5.95502 12.2784 6.12455 12.8595C5.19534 13.1574 4.34351 13.6571 3.63008 14.3228C2.91666 14.9885 2.35929 15.8038 1.99792 16.7102C1.63655 17.6166 1.48012 18.5917 1.53983 19.5657C1.59954 20.5397 1.87392 21.4884 2.3433 22.3439C1.51127 22.9906 0.863986 23.8448 0.466416 24.8207C0.0688447 25.7967 -0.0650252 26.86 0.0782422 27.904C0.22151 28.9481 0.636874 29.9361 1.28265 30.7688C1.92842 31.6016 2.78188 32.2499 3.75736 32.6486C3.16017 33.5936 2.81276 34.6748 2.7477 35.7909C2.68264 36.9069 2.90206 38.0212 3.38539 39.0292C3.86872 40.0373 4.60013 40.9061 5.51103 41.5541C6.42194 42.2022 7.48251 42.6084 8.5933 42.7345C8.63258 43.7422 8.92488 44.7238 9.44327 45.5888C9.96167 46.4538 10.6895 47.1744 11.5596 47.6842C12.4297 48.194 13.4142 48.4765 14.4222 48.5058C15.4303 48.5351 16.4294 48.3101 17.3277 47.8517C18.3829 48.6755 19.6842 49.1212 21.023 49.1173C22.2394 49.1116 23.4259 48.7396 24.4278 48.0498C25.4298 47.36 26.2007 46.3844 26.6402 45.2501C26.6471 45.1904 26.6471 45.1301 26.6402 45.0704C26.6439 45.0393 26.6439 45.0078 26.6402 44.9767V38.7267H29.6871L30.4683 39.9298C29.97 40.449 29.6903 41.1399 29.6871 41.8595C29.6855 42.4254 29.8519 42.9789 30.1651 43.4502C30.4784 43.9214 30.9244 44.2892 31.4468 44.5068C31.9691 44.7244 32.5443 44.7821 33.0995 44.6727C33.6546 44.5632 34.1649 44.2915 34.5655 43.8919C34.9662 43.4924 35.2393 42.9829 35.3503 42.428C35.4612 41.8731 35.4051 41.2978 35.1889 40.7749C34.9727 40.2519 34.6062 39.8049 34.1358 39.4904C33.6654 39.1758 33.1123 39.0079 32.5464 39.0079C32.2816 39.0141 32.0187 39.0561 31.7652 39.1329L30.7808 37.5001C30.7117 37.3923 30.6171 37.3031 30.5054 37.2404C30.3936 37.1778 30.2682 37.1435 30.1402 37.1407H26.6792V33.5939H36.2339L38.5777 36.3439V39.0626C37.906 39.2461 37.3238 39.6672 36.9391 40.2475C36.5544 40.8279 36.3934 41.5281 36.486 42.2182C36.5786 42.9083 36.9185 43.5414 37.4425 43.9998C37.9666 44.4583 38.6392 44.7109 39.3355 44.7109C40.0318 44.7109 40.7044 44.4583 41.2284 43.9998C41.7525 43.5414 42.0924 42.9083 42.185 42.2182C42.2775 41.5281 42.1166 40.8279 41.7319 40.2475C41.3472 39.6672 40.765 39.2461 40.0933 39.0626V36.0157C40.096 35.8352 40.032 35.6599 39.9136 35.5236L37.148 32.2892C37.0785 32.2054 36.9913 32.1381 36.8927 32.0922C36.7941 32.0463 36.6865 32.0228 36.5777 32.0236H26.6792V29.211H36.9058L40.8745 33.7657C40.9467 33.8457 41.0346 33.9099 41.1328 33.9543C41.2309 33.9986 41.3372 34.0222 41.4449 34.0235H44.4058C44.5471 34.5361 44.8289 34.9989 45.2193 35.3598C45.6097 35.7207 46.0932 35.9652 46.6153 36.0658C47.1373 36.1664 47.6771 36.119 48.1737 35.9291C48.6702 35.7391 49.1038 35.4141 49.4254 34.9908C49.747 34.5675 49.9439 34.0626 49.9938 33.5333C50.0437 33.004 49.9446 32.4713 49.7078 31.9953C49.4709 31.5194 49.1057 31.1191 48.6534 30.8397C48.2011 30.5603 47.6796 30.4129 47.148 30.4142ZM47.148 15.3907C47.4138 15.3907 47.6736 15.4695 47.8945 15.6172C48.1155 15.7649 48.2877 15.9747 48.3895 16.2203C48.4912 16.4658 48.5178 16.736 48.4659 16.9966C48.4141 17.2573 48.2861 17.4967 48.0982 17.6847C47.9102 17.8726 47.6708 18.0006 47.4101 18.0524C47.1495 18.1043 46.8793 18.0777 46.6338 17.9759C46.3882 17.8742 46.1784 17.702 46.0307 17.481C45.883 17.2601 45.8042 17.0003 45.8042 16.7345C45.8042 16.3781 45.9458 16.0363 46.1978 15.7843C46.4498 15.5323 46.7916 15.3907 47.148 15.3907ZM38.0074 8.1798C38.0058 7.91337 38.0835 7.6525 38.2306 7.43033C38.3776 7.20815 38.5874 7.03471 38.8333 6.93204C39.0791 6.82937 39.3499 6.8021 39.6113 6.8537C39.8727 6.9053 40.1129 7.03344 40.3013 7.22183C40.4897 7.41023 40.6178 7.65038 40.6694 7.91177C40.721 8.17315 40.6937 8.44398 40.5911 8.68983C40.4884 8.93569 40.3149 9.14547 40.0928 9.29253C39.8706 9.43959 39.6097 9.51728 39.3433 9.51574C38.9896 9.51369 38.651 9.37228 38.4009 9.12218C38.1508 8.87209 38.0094 8.53348 38.0074 8.1798ZM32.5386 6.83605C32.8044 6.83605 33.0642 6.91486 33.2852 7.06251C33.5061 7.21016 33.6784 7.42003 33.7801 7.66557C33.8818 7.91111 33.9084 8.18129 33.8565 8.44195C33.8047 8.70261 33.6767 8.94205 33.4888 9.12997C33.3009 9.3179 33.0614 9.44588 32.8008 9.49773C32.5401 9.54958 32.2699 9.52297 32.0244 9.42126C31.7788 9.31956 31.569 9.14732 31.4213 8.92634C31.2737 8.70537 31.1949 8.44557 31.1949 8.1798C31.1949 8.00267 31.2299 7.8273 31.2979 7.66376C31.3659 7.50021 31.4656 7.35173 31.5912 7.22685C31.7168 7.10197 31.8659 7.00315 32.0298 6.93608C32.1937 6.86902 32.3693 6.83502 32.5464 6.83605H32.5386ZM25.1558 12.0704V15.6251C24.4871 15.2935 23.7428 15.1441 22.998 15.1921C22.2531 15.2401 21.5342 15.4838 20.9136 15.8985C20.7513 16.015 20.6398 16.1893 20.6021 16.3854C20.5643 16.5816 20.6031 16.7848 20.7105 16.9532C20.8268 17.1134 20.9996 17.2235 21.1939 17.2612C21.3882 17.2989 21.5896 17.2614 21.7574 17.1564C22.2717 16.8077 22.8904 16.6469 23.5093 16.701C24.1283 16.7551 24.7097 17.0207 25.1558 17.4532V24.6564C24.488 24.3203 23.7423 24.1691 22.9964 24.2186C22.2504 24.268 21.5312 24.5163 20.9136 24.9376C20.7955 25.0672 20.7244 25.2328 20.7118 25.4077C20.6992 25.5826 20.7458 25.7566 20.8441 25.9018C20.9424 26.047 21.0867 26.1549 21.2538 26.2082C21.4208 26.2615 21.601 26.257 21.7652 26.1954C22.276 25.844 22.8927 25.6799 23.5107 25.7312C24.1286 25.7825 24.7098 26.0458 25.1558 26.4767V44.797C24.911 45.4023 24.537 45.9468 24.0599 46.3925C23.5828 46.8382 23.0141 47.1744 22.3936 47.3775C21.7731 47.5806 21.1157 47.6458 20.4674 47.5685C19.8191 47.4911 19.1955 47.2732 18.6402 46.9298C19.3345 46.3107 19.8055 45.4801 19.9806 44.5665C20.1557 43.6529 20.0251 42.7071 19.6089 41.8751C19.5852 41.7577 19.5347 41.6473 19.4614 41.5525C19.3882 41.4577 19.2941 41.381 19.1864 41.3283C19.0788 41.2757 18.9605 41.2485 18.8407 41.2489C18.7209 41.2493 18.6027 41.2772 18.4954 41.3306C18.3882 41.3839 18.2946 41.4612 18.2219 41.5565C18.1493 41.6518 18.0995 41.7625 18.0765 41.8801C18.0535 41.9977 18.0578 42.119 18.0892 42.2346C18.1206 42.3503 18.1781 42.4571 18.2574 42.547C18.4173 42.878 18.51 43.2375 18.5302 43.6046C18.5503 43.9717 18.4974 44.3392 18.3746 44.6857C18.2519 45.0323 18.0616 45.351 17.8148 45.6236C17.5681 45.8961 17.2697 46.117 16.9371 46.2736C16.8775 46.3115 16.8225 46.3561 16.773 46.4064C16.0996 46.7891 15.3385 46.9906 14.5639 46.9911C13.7894 46.9916 13.028 46.7912 12.3541 46.4094C11.6802 46.0276 11.1169 45.4775 10.7193 44.8128C10.3216 44.1481 10.1033 43.3916 10.0855 42.6173C11.4136 42.2345 13.9214 41.2735 14.2886 39.3829C14.3213 39.1857 14.2772 38.9834 14.1653 38.8177C14.0534 38.6521 13.8822 38.5356 13.6871 38.4923C13.4965 38.4626 13.3018 38.5045 13.1402 38.6097C12.9787 38.715 12.8618 38.8763 12.8121 39.0626C12.5855 40.1876 10.2261 41.0236 9.28862 41.2267C8.31281 41.2133 7.36153 40.919 6.54862 40.379C5.73572 39.839 5.09562 39.0762 4.70494 38.182C4.31425 37.2877 4.18953 36.2998 4.3457 35.3364C4.50186 34.3731 4.93229 33.4752 5.58549 32.7501C5.68055 32.6467 5.74597 32.5195 5.77484 32.382C5.80371 32.2445 5.79498 32.1018 5.74955 31.9689C5.70409 31.843 5.62705 31.7309 5.52581 31.6433C5.42458 31.5558 5.30255 31.4957 5.17143 31.4689C4.27942 31.2939 3.46148 30.8524 2.82567 30.2028C2.18985 29.5532 1.76608 28.7259 1.61033 27.8304C1.45458 26.9348 1.57418 26.0131 1.95334 25.1869C2.3325 24.3608 2.95337 23.6691 3.73393 23.2032C4.03845 22.9985 4.38059 22.8562 4.74051 22.7846C5.10043 22.713 5.47097 22.7136 5.83068 22.7862C6.19038 22.8589 6.53208 23.0022 6.83599 23.2079C7.13989 23.4136 7.39996 23.6776 7.60111 23.9845C7.67223 24.0844 7.76586 24.1662 7.87444 24.2232C7.98302 24.2802 8.1035 24.3108 8.22612 24.3126C8.37927 24.3114 8.52869 24.2652 8.6558 24.1798C8.81682 24.0621 8.92674 23.8874 8.96306 23.6913C8.99937 23.4952 8.95932 23.2926 8.85112 23.1251C8.29457 22.288 7.46166 21.6729 6.49782 21.3873C5.53397 21.1017 4.50044 21.1638 3.57768 21.5626C3.21845 20.8928 3.01491 20.1505 2.98221 19.3911C2.94951 18.6318 3.08849 17.8748 3.38881 17.1765C3.68913 16.4783 4.14306 15.8567 4.7168 15.3582C5.29055 14.8596 5.96935 14.4969 6.70268 14.297C7.00028 14.7877 7.41862 15.1939 7.91781 15.477C8.41699 15.7601 8.98038 15.9106 9.55424 15.9142C9.94614 15.9159 10.3352 15.8471 10.7027 15.711C10.8214 15.6998 10.9361 15.6616 11.0378 15.5992C11.1395 15.5368 11.2255 15.4519 11.2893 15.3511C11.3531 15.2503 11.393 15.1363 11.4059 15.0177C11.4188 14.8991 11.4043 14.7791 11.3637 14.6669C11.323 14.5548 11.2572 14.4534 11.1713 14.3706C11.0853 14.2879 10.9816 14.2259 10.868 14.1894C10.7544 14.1529 10.634 14.143 10.516 14.1603C10.3979 14.1776 10.2854 14.2217 10.1871 14.2892C9.72693 14.4472 9.22311 14.4177 8.78453 14.2072C8.34595 13.9967 8.00784 13.622 7.8433 13.1642C7.84624 13.1408 7.84624 13.1172 7.8433 13.0939C7.4382 12.1542 7.32691 11.1139 7.52403 10.1098C7.72116 9.10573 8.21749 8.18477 8.94778 7.468C9.67807 6.75123 10.6082 6.2722 11.6158 6.09387C12.6234 5.91555 13.6614 6.04627 14.5933 6.46886H14.7496C16.9136 6.89074 17.5542 8.87511 17.2183 10.6485C17.1877 10.8446 17.2329 11.0449 17.3446 11.2088C17.4563 11.3728 17.6262 11.4881 17.8199 11.5314H17.9605C18.1422 11.5354 18.3196 11.476 18.4622 11.3633C18.6048 11.2507 18.7036 11.0919 18.7417 10.9142C19.2339 8.27355 18.1011 6.0548 15.9449 5.21886C16.3632 4.36594 17.011 3.64654 17.8156 3.14144C18.6201 2.63635 19.5496 2.36556 20.4996 2.35948C21.5324 2.35776 22.5409 2.67295 23.3889 3.26251C24.2369 3.85207 24.8836 4.68762 25.2417 5.65636L25.1558 12.0704ZM32.5386 40.4845C32.8047 40.4845 33.0648 40.5635 33.286 40.7115C33.5071 40.8595 33.6793 41.0698 33.7808 41.3158C33.8823 41.5618 33.9084 41.8324 33.8559 42.0933C33.8035 42.3541 33.6747 42.5936 33.486 42.7812C33.2973 42.9688 33.0571 43.0961 32.7959 43.1471C32.5348 43.1981 32.2643 43.1703 32.0189 43.0674C31.7735 42.9645 31.5642 42.7911 31.4175 42.5691C31.2708 42.3471 31.1933 42.0865 31.1949 41.8204C31.1959 41.644 31.2317 41.4694 31.3001 41.3068C31.3686 41.1441 31.4685 40.9966 31.594 40.8725C31.7195 40.7485 31.8682 40.6504 32.0316 40.5838C32.195 40.5172 32.37 40.4835 32.5464 40.4845H32.5386ZM40.6792 41.8204C40.6808 42.0865 40.6033 42.3471 40.4566 42.5691C40.3099 42.7911 40.1006 42.9645 39.8552 43.0674C39.6098 43.1703 39.3393 43.1981 39.0782 43.1471C38.817 43.0961 38.5768 42.9688 38.3881 42.7812C38.1994 42.5936 38.0706 42.3541 38.0182 42.0933C37.9657 41.8324 37.9918 41.5618 38.0933 41.3158C38.1948 41.0698 38.367 40.8595 38.5881 40.7115C38.8093 40.5635 39.0694 40.4845 39.3355 40.4845C39.512 40.4835 39.6869 40.5172 39.8503 40.5838C40.0137 40.6504 40.1625 40.7485 40.288 40.8725C40.4135 40.9966 40.5133 41.1441 40.5818 41.3068C40.6503 41.4694 40.686 41.644 40.6871 41.8204H40.6792ZM47.1402 34.6095C46.8741 34.611 46.6135 34.5335 46.3915 34.3868C46.1695 34.2401 45.9961 34.0308 45.8932 33.7854C45.7903 33.54 45.7625 33.2696 45.8135 33.0084C45.8645 32.7472 45.9918 32.5071 46.1794 32.3184C46.367 32.1296 46.6065 32.0009 46.8673 31.9484C47.1282 31.8959 47.3988 31.9221 47.6448 32.0235C47.8908 32.125 48.1011 32.2972 48.2491 32.5184C48.3971 32.7395 48.4761 32.9996 48.4761 33.2657C48.4761 33.6194 48.3367 33.9589 48.0881 34.2104C47.8394 34.462 47.5017 34.6054 47.148 34.6095H47.1402Z" fill="#1296DF"/>
</g>
<defs>
<clipPath id="clip0_1360_916">
<rect width="50" height="50" fill="white"/>
</clipPath>
</defs>
</svg>