<svg width="50" height="41" viewBox="0 0 50 41" fill="none" xmlns="http://www.w3.org/2000/svg">
<g clip-path="url(#clip0_1360_884)">
<path d="M48.5563 38.263C48.5563 38.1535 48.5563 38.0778 48.5563 38.0025C48.5563 29.3487 48.5556 20.6944 48.5585 12.0406C48.5585 11.5079 48.4139 11.0307 48.053 10.6384C47.7678 10.3284 47.4033 10.1418 46.9831 10.0803C46.8332 10.0583 46.6805 10.0477 46.5292 10.0477C38.1168 10.0463 29.7043 10.0463 21.2919 10.0463C20.8917 10.0463 20.621 9.81975 20.5574 9.43342C20.4849 8.99406 20.8172 8.60489 21.265 8.60489C27.8454 8.60489 34.4259 8.60489 41.006 8.60489C42.9324 8.60489 44.8591 8.58722 46.7851 8.61126C48.0735 8.62716 49.025 9.24855 49.6397 10.3775C49.8938 10.8444 49.9999 11.3499 49.9995 11.8829C49.9974 21.173 49.9978 30.4635 49.9999 39.7536C49.9999 40.0565 49.8673 40.2707 49.6153 40.4149C49.3332 40.5761 49.0498 40.5241 48.8105 40.3386C47.5299 39.3443 46.2578 38.3383 44.981 37.3387C44.1193 36.664 43.2547 35.9927 42.3916 35.3197C41.7592 34.8266 41.129 34.3311 40.4931 33.8426C40.4252 33.7906 40.3266 33.7712 40.239 33.7542C40.1651 33.7401 40.0863 33.7514 40.0099 33.7514C30.3603 33.7514 20.7108 33.7539 11.0608 33.7493C9.41546 33.7486 8.03483 32.5659 7.81462 30.9544C7.78139 30.7116 7.7563 30.4656 7.75594 30.2214C7.7517 27.7708 7.75276 25.3199 7.75418 22.8693C7.75453 22.5416 7.84042 22.256 8.16207 22.0924C8.65445 21.8425 9.22529 22.1832 9.22565 22.7353C9.22777 24.7147 9.22671 26.6941 9.22671 28.6735C9.22671 29.2744 9.22671 29.8753 9.22706 30.4762C9.22741 31.3199 9.85481 32.0845 10.6826 32.2435C10.8025 32.2665 10.9265 32.2768 11.0485 32.2768C20.7984 32.2782 30.548 32.2803 40.298 32.2715C40.7179 32.2711 41.0509 32.3916 41.3729 32.6497C42.3781 33.4548 43.3975 34.2424 44.4116 35.0366C45.7018 36.0472 46.9919 37.0577 48.2827 38.0672C48.3605 38.1266 48.4425 38.1814 48.5563 38.263Z" fill="#1296DF"/>
<path d="M8.81458 18.6211C8.40279 18.6211 7.99065 18.6338 7.57957 18.6182C6.77509 18.5885 5.98686 17.7632 5.9759 16.9555C5.97414 16.8318 5.96636 16.7074 5.97767 16.5848C5.98969 16.4515 5.92925 16.3939 5.81649 16.3324C5.31775 16.0609 4.81795 15.7898 4.3383 15.4869C4.16829 15.3794 4.06013 15.3674 3.89435 15.4724C3.18778 15.9202 2.42111 15.8955 1.7566 15.4183C1.43636 15.1882 1.25574 14.8507 1.06522 14.5202C0.798711 14.0582 0.530786 13.5969 0.261092 13.1364C-0.266983 12.2343 0.0302801 11.0778 0.943632 10.5769C1.19671 10.4384 1.25786 10.2987 1.23206 10.0071C1.18894 9.52112 1.22676 9.02627 1.25079 8.53602C1.26246 8.29496 1.26104 8.25819 0.990289 8.11009C0.583805 7.88741 0.280886 7.56788 0.122181 7.13135C-0.0743453 6.59055 -0.037585 6.05717 0.246247 5.55349C0.588754 4.94623 0.936916 4.34181 1.29462 3.7434C1.79866 2.90003 2.92303 2.61478 3.76746 3.10575C4.12198 3.31182 4.1089 3.29096 4.46308 3.06934C4.8989 2.79646 5.35416 2.55293 5.8126 2.31893C5.94197 2.25319 5.98403 2.19098 5.97732 2.05666C5.9607 1.73254 5.97308 1.41159 6.11658 1.10903C6.40996 0.489049 6.88784 0.091755 7.57427 0.0479254C8.34729 -0.00155962 9.12633 -0.0139309 9.90042 0.0164671C10.7724 0.0503996 11.3839 0.58095 11.6013 1.33135C11.6699 1.56818 11.6677 1.82868 11.6748 2.07928C11.6783 2.20476 11.7162 2.27369 11.8286 2.31999C12.3966 2.55257 12.919 2.86574 13.4103 3.23052C13.4895 3.28919 13.5407 3.29874 13.6259 3.24324C13.9494 3.03329 14.2996 2.88236 14.6895 2.86998C15.3954 2.84772 15.9627 3.12554 16.3356 3.72961C16.7078 4.33262 17.0524 4.95295 17.4023 5.56975C17.9188 6.47992 17.5575 7.61842 16.7067 8.08005C16.3476 8.27481 16.395 8.29177 16.4208 8.72229C16.4508 9.22457 16.4158 9.73143 16.3921 10.2355C16.3875 10.3366 16.384 10.3899 16.4819 10.4447C16.794 10.62 17.0998 10.8038 17.3055 11.1156C17.7463 11.784 17.7512 12.4662 17.3688 13.153C17.0468 13.7316 16.7071 14.3007 16.3716 14.8715C15.8457 15.7661 14.7203 16.0623 13.8398 15.5233C13.615 15.3855 13.4662 15.377 13.2318 15.535C12.7776 15.8418 12.2842 16.092 11.7992 16.3511C11.7027 16.4027 11.6755 16.4497 11.678 16.548C11.6865 16.859 11.6805 17.1676 11.5564 17.4635C11.24 18.2178 10.6059 18.643 9.7866 18.6433C9.46247 18.6433 9.1387 18.6433 8.81458 18.6433C8.81493 18.6356 8.81458 18.6285 8.81458 18.6211ZM8.83402 1.4844C8.51024 1.4844 8.18612 1.48405 7.86234 1.4844C7.57604 1.48511 7.41344 1.64276 7.41061 1.92836C7.40779 2.19911 7.41026 2.47022 7.40991 2.74132C7.40955 3.11175 7.25474 3.34893 6.90905 3.4638C6.07947 3.73986 5.34497 4.17497 4.69071 4.75254C4.45813 4.9579 4.09583 4.9883 3.83391 4.83701C3.59037 4.69633 3.34613 4.55742 3.10259 4.41674C2.85906 4.27642 2.66465 4.31177 2.52079 4.55424C2.18005 5.12862 1.84815 5.70866 1.51907 6.29011C1.40879 6.48522 1.47241 6.69058 1.66364 6.8044C1.90046 6.94508 2.13763 7.08505 2.37834 7.21866C2.71555 7.40599 2.84774 7.70255 2.77705 8.08535C2.72721 8.35504 2.68091 8.62792 2.66712 8.90079C2.63991 9.4522 2.66677 10.0029 2.77246 10.5472C2.85446 10.9703 2.72262 11.2432 2.34936 11.4503C2.12385 11.5755 1.8994 11.7034 1.6799 11.8388C1.45545 11.977 1.40844 12.1901 1.54063 12.4132C1.60638 12.5238 1.67177 12.6351 1.73575 12.7468C1.99307 13.194 2.24615 13.6436 2.50806 14.0875C2.65652 14.3392 2.82477 14.3855 3.08527 14.2484C3.31326 14.1282 3.53771 14.0002 3.75544 13.8624C4.03786 13.6835 4.41748 13.6471 4.73807 13.943C4.89218 14.0851 5.06467 14.2088 5.23398 14.3332C5.75357 14.7153 6.33078 14.9853 6.93485 15.2045C7.25544 15.3208 7.4092 15.553 7.40991 15.8909C7.41026 16.1797 7.40673 16.4681 7.41167 16.7565C7.41592 16.9972 7.58841 17.1775 7.81675 17.1786C8.48232 17.1814 9.14789 17.1818 9.81346 17.1782C10.0694 17.1768 10.2164 17.0234 10.2178 16.7707C10.2192 16.5116 10.2224 16.2521 10.2168 15.9931C10.2086 15.6293 10.3723 15.3013 10.8035 15.1614C11.5875 14.9065 12.2849 14.4912 12.8999 13.9394C13.1802 13.6881 13.4951 13.6524 13.8214 13.833C14.0625 13.9663 14.2996 14.1059 14.5382 14.2441C14.7825 14.3855 14.9938 14.3357 15.1349 14.0928C15.4611 13.5301 15.7849 12.966 16.1073 12.4012C16.2402 12.1686 16.1861 11.9699 15.9581 11.8349C15.7312 11.7006 15.5025 11.5698 15.2755 11.4351C14.9041 11.2146 14.8019 10.9664 14.8722 10.5352C14.926 10.2072 14.9935 9.87459 14.9875 9.54516C14.9786 9.06197 14.9256 8.57773 14.8616 8.09772C14.8097 7.70785 14.9065 7.44169 15.249 7.23279C15.4692 7.09848 15.6933 6.97088 15.9185 6.84469C16.1843 6.69588 16.2486 6.51137 16.1002 6.24804C15.7782 5.67614 15.4505 5.10706 15.12 4.53975C14.9914 4.31883 14.7641 4.2743 14.5439 4.40473C14.2919 4.55424 14.0388 4.70234 13.7807 4.84126C13.5121 4.98618 13.2477 4.95578 13.0003 4.78541C12.9042 4.71931 12.819 4.63766 12.7288 4.56273C12.1258 4.06222 11.4433 3.70911 10.7067 3.44861C10.4416 3.35494 10.2574 3.16159 10.239 2.86716C10.2185 2.53879 10.2235 2.20901 10.2175 1.87958C10.2129 1.63039 10.0701 1.48476 9.82372 1.4837C9.49358 1.48334 9.1638 1.4844 8.83402 1.4844Z" fill="#1296DF"/>
<path d="M28.891 20.4316C32.2256 20.4316 35.5602 20.4316 38.8944 20.432C39.3419 20.432 39.6021 20.7126 39.6332 21.1495C39.6597 21.5193 39.2557 21.8794 38.8898 21.8791C32.215 21.8717 25.5399 21.8738 18.865 21.8734C18.443 21.8734 18.1365 21.5698 18.1348 21.1555C18.133 20.7257 18.431 20.432 18.8696 20.432C22.2102 20.4316 25.5508 20.4316 28.891 20.4316Z" fill="#1296DF"/>
<path d="M30.1514 16.1256C27.248 16.1256 24.3446 16.1259 21.4409 16.1256C21.0189 16.1256 20.757 15.9153 20.6771 15.5236C20.5774 15.0337 20.9616 14.6771 21.3508 14.664C21.4038 14.6622 21.4568 14.6636 21.5099 14.6636C27.2402 14.6636 32.9702 14.6636 38.7006 14.6636C38.7773 14.6636 38.854 14.6598 38.9304 14.6644C39.2778 14.6856 39.5245 14.8814 39.6115 15.202C39.6945 15.5081 39.5751 15.8538 39.2948 16.0107C39.164 16.0839 38.9954 16.1213 38.8441 16.1217C35.9464 16.127 33.0487 16.1256 30.1514 16.1256Z" fill="#1296DF"/>
<path d="M24.6146 26.1655C26.5162 26.1655 28.4179 26.1648 30.3199 26.1658C30.92 26.1662 31.2735 26.7558 30.9801 27.2739C30.8218 27.5535 30.5539 27.6419 30.2502 27.6419C28.2132 27.643 26.1758 27.6426 24.1388 27.6426C22.4136 27.6426 20.6887 27.643 18.9634 27.6423C18.6941 27.6423 18.4505 27.5712 18.2844 27.3432C18.1165 27.1131 18.0755 26.8558 18.2017 26.5964C18.3385 26.315 18.5735 26.1658 18.892 26.1655C20.5522 26.1648 22.2128 26.1651 23.873 26.1651C24.1197 26.1655 24.3672 26.1655 24.6146 26.1655Z" fill="#1296DF"/>
<path d="M8.82163 13.3615C6.66019 13.4141 4.6465 11.5591 4.784 9.09691C4.89888 7.0355 6.53825 5.28656 8.82092 5.28126C11.0774 5.27596 12.8928 7.05 12.8674 9.39559C12.8433 11.591 11.046 13.3915 8.82163 13.3615ZM11.3973 9.31641C11.4164 7.91457 10.2337 6.76687 8.87995 6.74284C7.44276 6.71703 6.23568 7.86615 6.23533 9.32207C6.23533 10.7752 7.37949 11.8843 8.78062 11.9115C10.2563 11.9398 11.4281 10.7122 11.3973 9.31641Z" fill="#1296DF"/>
</g>
<defs>
<clipPath id="clip0_1360_884">
<rect width="50" height="40.5105" fill="white"/>
</clipPath>
</defs>
</svg>