<svg width="40" height="40" viewBox="0 0 40 40" fill="none" xmlns="http://www.w3.org/2000/svg">
<g clip-path="url(#clip0_34_1742)">
<path d="M22.5508 31.9617C22.3798 31.9617 22.2159 32.0296 22.095 32.1505C21.9742 32.2714 21.9062 32.4353 21.9062 32.6062V35.443C21.9058 35.4997 21.883 35.5539 21.8428 35.5939C21.8025 35.6338 21.7481 35.6562 21.6914 35.6562H18.2539C18.1969 35.6562 18.1423 35.6336 18.102 35.5933C18.0617 35.553 18.0391 35.4984 18.0391 35.4414V32.6094C18.0391 32.4606 17.9878 32.3164 17.8936 32.2012C17.7995 32.086 17.6684 32.0069 17.5227 31.9773C15.9883 31.6654 14.529 31.0586 13.2258 30.1906C13.1017 30.1089 12.9532 30.0724 12.8053 30.0873C12.6575 30.1023 12.5193 30.1677 12.4141 30.2727L10.4023 32.2797C10.3619 32.32 10.3071 32.3427 10.25 32.3427C10.1929 32.3427 10.1381 32.32 10.0977 32.2797L7.66719 29.8492C7.62702 29.8087 7.60448 29.7539 7.60448 29.6969C7.60448 29.6398 7.62702 29.5851 7.66719 29.5445L9.67734 27.5352C9.78195 27.4296 9.84686 27.2911 9.8611 27.1432C9.87533 26.9953 9.83802 26.847 9.75547 26.7234C8.88751 25.4202 8.28071 23.961 7.96875 22.4266C7.94011 22.2807 7.86193 22.1492 7.74746 22.0544C7.63299 21.9596 7.48926 21.9072 7.34062 21.9062H4.50391C4.44693 21.9062 4.39228 21.8836 4.35199 21.8433C4.3117 21.803 4.28906 21.7484 4.28906 21.6914V18.2539C4.28968 18.1973 4.31256 18.1431 4.35276 18.1032C4.39296 18.0633 4.44726 18.0408 4.50391 18.0406H7.34922C7.49777 18.0407 7.64179 17.9894 7.75684 17.8954C7.87189 17.8015 7.9509 17.6706 7.98047 17.525C8.29081 15.9915 8.89459 14.5325 9.75859 13.2281C9.84129 13.1046 9.87869 12.9563 9.86445 12.8083C9.85021 12.6604 9.7852 12.5219 9.68047 12.4164L7.66719 10.4039C7.62702 10.3634 7.60448 10.3086 7.60448 10.2516C7.60448 10.1945 7.62702 10.1397 7.66719 10.0992L10.0977 7.66875C10.1381 7.62839 10.1929 7.60572 10.25 7.60572C10.3071 7.60572 10.3619 7.62839 10.4023 7.66875L12.4117 9.67891C12.5169 9.78385 12.6551 9.84931 12.803 9.86425C12.9509 9.87919 13.0993 9.8427 13.2234 9.76094C14.5268 8.89329 15.986 8.28653 17.5203 7.97422C17.6661 7.94465 17.7972 7.86555 17.8913 7.75036C17.9854 7.63516 18.0368 7.49095 18.0367 7.34219V4.50547C18.0368 4.47709 18.0425 4.449 18.0535 4.42283C18.0645 4.39666 18.0805 4.37291 18.1007 4.35295C18.1209 4.33299 18.1448 4.31721 18.1711 4.30651C18.1974 4.29582 18.2255 4.29042 18.2539 4.29063H21.6914C21.7483 4.29083 21.8028 4.31353 21.8431 4.35378C21.8833 4.39402 21.906 4.44855 21.9062 4.50547V7.34219C21.9062 7.51313 21.9742 7.67707 22.095 7.79794C22.2159 7.91881 22.3798 7.98672 22.5508 7.98672C22.7217 7.98672 22.8857 7.91881 23.0065 7.79794C23.1274 7.67707 23.1953 7.51313 23.1953 7.34219V4.50547C23.1951 4.10653 23.0366 3.72396 22.7547 3.44172C22.4727 3.15948 22.0903 3.00062 21.6914 3H18.2539C17.8552 3.00062 17.4731 3.15927 17.1912 3.44117C16.9093 3.72307 16.7506 4.10524 16.75 4.50391V6.82812C15.4125 7.15488 14.1336 7.68642 12.9586 8.40391L11.3133 6.75781C11.0268 6.48435 10.646 6.33177 10.25 6.33177C9.85397 6.33177 9.47317 6.48435 9.18672 6.75781L6.75625 9.18828C6.47449 9.47041 6.31623 9.85283 6.31623 10.2516C6.31623 10.6503 6.47449 11.0327 6.75625 11.3148L8.39688 12.9602C7.68463 14.1359 7.15713 15.4141 6.83281 16.75H4.50391C4.10524 16.7506 3.72307 16.9093 3.44117 17.1912C3.15927 17.4731 3.00062 17.8552 3 18.2539V21.6914C3.00021 22.0903 3.15867 22.4729 3.44062 22.7552C3.72256 23.0374 4.10497 23.1963 4.50391 23.1969H6.825C7.15176 24.5343 7.68329 25.8132 8.40078 26.9883L6.76016 28.6336C6.4784 28.9157 6.32014 29.2981 6.32014 29.6969C6.32014 30.0956 6.4784 30.478 6.76016 30.7602L9.19062 33.1906C9.4768 33.4646 9.85771 33.6176 10.2539 33.6176C10.6501 33.6176 11.031 33.4646 11.3172 33.1906L12.9625 31.55C14.1377 32.267 15.4166 32.7982 16.7539 33.125V35.4461C16.7553 35.8435 16.9138 36.2243 17.1948 36.5054C17.4758 36.7866 17.8565 36.9452 18.2539 36.9469H21.6914C22.0901 36.9463 22.4722 36.7876 22.7541 36.5057C23.036 36.2238 23.1947 35.8416 23.1953 35.443V32.6094C23.1957 32.5245 23.1794 32.4403 23.1472 32.3618C23.1149 32.2832 23.0675 32.2118 23.0076 32.1516C22.9478 32.0914 22.8766 32.0437 22.7982 32.0111C22.7198 31.9785 22.6357 31.9617 22.5508 31.9617Z" fill="#1296DF"/>
<path d="M25.7731 14.818C25.7726 13.9633 25.433 13.1436 24.8288 12.5391C24.2246 11.9346 23.4051 11.5946 22.5504 11.5938H14.816C14.1384 11.5919 13.4776 11.8043 12.928 12.2006C12.3784 12.5968 11.9681 13.1567 11.7558 13.8002C11.5434 14.4436 11.54 15.1377 11.7458 15.7833C11.9517 16.4288 12.3563 16.9928 12.902 17.3945C12.4964 17.6911 12.1666 18.0791 11.9392 18.527C11.7118 18.975 11.5932 19.4703 11.5932 19.9727C11.5932 20.475 11.7118 20.9703 11.9392 21.4183C12.1666 21.8663 12.4964 22.2543 12.902 22.5508C12.3557 22.9523 11.9504 23.5164 11.7441 24.1622C11.5379 24.8081 11.5411 25.5026 11.7535 26.1465C11.9659 26.7904 12.3766 27.3506 12.9266 27.7469C13.4767 28.1432 14.138 28.3554 14.816 28.3531H22.5504C23.228 28.355 23.8888 28.1426 24.4384 27.7463C24.9881 27.3501 25.3984 26.7902 25.6107 26.1467C25.823 25.5033 25.8265 24.8092 25.6206 24.1636C25.4148 23.5181 25.0101 22.9541 24.4645 22.5524C24.87 22.2558 25.1999 21.8678 25.4273 21.4199C25.6547 20.9719 25.7732 20.4766 25.7732 19.9742C25.7732 19.4719 25.6547 18.9766 25.4273 18.5286C25.1999 18.0806 24.87 17.6926 24.4645 17.3961C24.8689 17.0986 25.198 16.7104 25.4253 16.2626C25.6525 15.8149 25.7717 15.3201 25.7731 14.818ZM24.484 25.1305C24.4832 25.6429 24.2791 26.1341 23.9167 26.4963C23.5542 26.8585 23.0628 27.0621 22.5504 27.0625H14.816C14.3032 27.0625 13.8114 26.8588 13.4488 26.4962C13.0862 26.1336 12.8824 25.6417 12.8824 25.1289C12.8824 24.6161 13.0862 24.1243 13.4488 23.7617C13.8114 23.399 14.3032 23.1953 14.816 23.1953H22.5504C23.0634 23.1957 23.5552 23.3998 23.9178 23.7627C24.2803 24.1255 24.484 24.6175 24.484 25.1305ZM24.484 19.9742C24.4832 20.4867 24.2791 20.9778 23.9167 21.34C23.5542 21.7022 23.0628 21.9058 22.5504 21.9063H14.816C14.3032 21.9063 13.8114 21.7025 13.4488 21.3399C13.0862 20.9773 12.8824 20.4855 12.8824 19.9727C12.8824 19.4598 13.0862 18.968 13.4488 18.6054C13.8114 18.2428 14.3032 18.0391 14.816 18.0391H22.5504C23.0634 18.0395 23.5552 18.2436 23.9178 18.6064C24.2803 18.9693 24.484 19.4613 24.484 19.9742ZM22.5504 16.75H14.816C14.3032 16.75 13.8114 16.5463 13.4488 16.1837C13.0862 15.8211 12.8824 15.3292 12.8824 14.8164C12.8824 14.3036 13.0862 13.8118 13.4488 13.4492C13.8114 13.0865 14.3032 12.8828 14.816 12.8828H22.5504C23.0632 12.8828 23.555 13.0865 23.9177 13.4492C24.2803 13.8118 24.484 14.3036 24.484 14.8164C24.484 15.3292 24.2803 15.8211 23.9177 16.1837C23.555 16.5463 23.0632 16.75 22.5504 16.75Z" fill="#1296DF"/>
<path d="M21.6914 14.1719H18.2539C18.083 14.1719 17.919 14.2398 17.7982 14.3607C17.6773 14.4815 17.6094 14.6455 17.6094 14.8164C17.6094 14.9873 17.6773 15.1513 17.7982 15.2722C17.919 15.393 18.083 15.4609 18.2539 15.4609H21.6914C21.8623 15.4609 22.0263 15.393 22.1472 15.2722C22.268 15.1513 22.3359 14.9873 22.3359 14.8164C22.3359 14.6455 22.268 14.4815 22.1472 14.3607C22.0263 14.2398 21.8623 14.1719 21.6914 14.1719Z" fill="#1296DF"/>
<path d="M15.6758 15.6774C16.1504 15.6774 16.5352 15.2926 16.5352 14.818C16.5352 14.3434 16.1504 13.9586 15.6758 13.9586C15.2012 13.9586 14.8164 14.3434 14.8164 14.818C14.8164 15.2926 15.2012 15.6774 15.6758 15.6774Z" fill="#1296DF"/>
<path d="M18.2539 20.6188H21.6914C21.8623 20.6188 22.0263 20.5509 22.1472 20.43C22.268 20.3091 22.3359 20.1452 22.3359 19.9742C22.3359 19.8033 22.268 19.6394 22.1472 19.5185C22.0263 19.3976 21.8623 19.3297 21.6914 19.3297H18.2539C18.083 19.3297 17.919 19.3976 17.7982 19.5185C17.6773 19.6394 17.6094 19.8033 17.6094 19.9742C17.6094 20.1452 17.6773 20.3091 17.7982 20.43C17.919 20.5509 18.083 20.6188 18.2539 20.6188Z" fill="#1296DF"/>
<path d="M15.6758 20.8336C16.1504 20.8336 16.5352 20.4489 16.5352 19.9742C16.5352 19.4996 16.1504 19.1149 15.6758 19.1149C15.2012 19.1149 14.8164 19.4996 14.8164 19.9742C14.8164 20.4489 15.2012 20.8336 15.6758 20.8336Z" fill="#1296DF"/>
<path d="M18.2539 25.775H21.6914C21.8623 25.775 22.0263 25.7071 22.1472 25.5862C22.268 25.4654 22.3359 25.3014 22.3359 25.1305C22.3359 24.9596 22.268 24.7956 22.1472 24.6747C22.0263 24.5539 21.8623 24.486 21.6914 24.486H18.2539C18.083 24.486 17.919 24.5539 17.7982 24.6747C17.6773 24.7956 17.6094 24.9596 17.6094 25.1305C17.6094 25.3014 17.6773 25.4654 17.7982 25.5862C17.919 25.7071 18.083 25.775 18.2539 25.775Z" fill="#1296DF"/>
<path d="M15.6758 25.9899C16.1504 25.9899 16.5352 25.6051 16.5352 25.1305C16.5352 24.6559 16.1504 24.2711 15.6758 24.2711C15.2012 24.2711 14.8164 24.6559 14.8164 25.1305C14.8164 25.6051 15.2012 25.9899 15.6758 25.9899Z" fill="#1296DF"/>
<path d="M25.1289 10.3062C25.2291 10.3064 25.328 10.2831 25.4176 10.2384C25.5073 10.1936 25.5852 10.1286 25.6453 10.0484L28.0297 6.86871H32.3164C32.4721 7.41738 32.8211 7.89122 33.2988 8.20282C33.7765 8.51441 34.3507 8.64274 34.9156 8.56412C35.4805 8.4855 35.998 8.20524 36.3724 7.77504C36.7469 7.34485 36.9532 6.79374 36.9532 6.2234C36.9532 5.65305 36.7469 5.10194 36.3724 4.67175C35.998 4.24155 35.4805 3.96129 34.9156 3.88267C34.3507 3.80406 33.7765 3.93238 33.2988 4.24397C32.8211 4.55557 32.4721 5.02941 32.3164 5.57808H27.707C27.607 5.57826 27.5084 5.60164 27.4189 5.64637C27.3294 5.69111 27.2516 5.75598 27.1914 5.8359L24.6133 9.2734C24.5415 9.3691 24.4978 9.48289 24.487 9.60204C24.4762 9.72118 24.4988 9.84097 24.5522 9.94801C24.6057 10.055 24.6879 10.1451 24.7896 10.208C24.8913 10.271 25.0085 10.3045 25.1281 10.3046L25.1289 10.3062ZM34.582 5.14996C34.7945 5.14996 35.0022 5.21296 35.1788 5.331C35.3555 5.44903 35.4932 5.6168 35.5745 5.81309C35.6558 6.00938 35.6771 6.22537 35.6356 6.43375C35.5942 6.64212 35.4919 6.83353 35.3416 6.98376C35.1914 7.134 35 7.23631 34.7916 7.27775C34.5832 7.3192 34.3672 7.29793 34.1709 7.21663C33.9747 7.13532 33.8069 6.99763 33.6889 6.82098C33.5708 6.64433 33.5078 6.43664 33.5078 6.22418C33.5082 5.9394 33.6215 5.66641 33.8229 5.46505C34.0243 5.26368 34.2973 5.15037 34.582 5.14996ZM34.582 22.7655C34.0688 22.7665 33.5699 22.9349 33.1611 23.2451C32.7522 23.5552 32.4556 23.9903 32.3164 24.4843H29.582L27.9992 23.6929C27.9235 23.655 27.8411 23.6325 27.7566 23.6265C27.6722 23.6205 27.5874 23.6311 27.5071 23.6579C27.4268 23.6847 27.3525 23.727 27.2886 23.7825C27.2246 23.8379 27.1722 23.9055 27.1344 23.9812C27.0965 24.0569 27.0739 24.1393 27.0679 24.2238C27.0619 24.3082 27.0726 24.393 27.0994 24.4733C27.1262 24.5536 27.1685 24.6279 27.224 24.6918C27.2794 24.7558 27.3469 24.8082 27.4227 24.846L29.1414 25.7054C29.2309 25.7501 29.3296 25.7733 29.4297 25.7734H32.3203C32.4411 26.1952 32.6771 26.5749 33.0019 26.8699C33.3267 27.165 33.7273 27.3635 34.1587 27.4434C34.5901 27.5232 35.0353 27.4811 35.4441 27.3218C35.8529 27.1625 36.2092 26.8923 36.4729 26.5416C36.7366 26.191 36.8972 25.7737 36.9368 25.3367C36.9763 24.8997 36.8932 24.4604 36.6968 24.0681C36.5003 23.6758 36.1983 23.346 35.8247 23.1159C35.4511 22.8858 35.0208 22.7645 34.582 22.7655ZM34.582 26.203C34.3696 26.203 34.1619 26.14 33.9852 26.022C33.8086 25.904 33.6709 25.7362 33.5896 25.5399C33.5083 25.3436 33.487 25.1276 33.5285 24.9193C33.5699 24.7109 33.6722 24.5195 33.8224 24.3692C33.9727 24.219 34.1641 24.1167 34.3725 24.0752C34.5808 24.0338 34.7968 24.0551 34.9931 24.1364C35.1894 24.2177 35.3572 24.3554 35.4752 24.532C35.5932 24.7087 35.6562 24.9164 35.6562 25.1288C35.656 25.4137 35.5428 25.6868 35.3414 25.8882C35.14 26.0896 34.8669 26.2028 34.582 26.203ZM34.582 12.453C34.0688 12.454 33.5699 12.6224 33.1611 12.9326C32.7522 13.2427 32.4556 13.6778 32.3164 14.1718H29.4258C29.3411 14.1717 29.2573 14.1884 29.1792 14.2209C29.101 14.2533 29.03 14.3009 28.9703 14.3609L28.1109 15.2202C27.9901 15.341 27.9223 15.5049 27.9223 15.6757C27.9223 15.8465 27.9901 16.0104 28.1109 16.1312C28.2317 16.252 28.3956 16.3198 28.5664 16.3198C28.7372 16.3198 28.9011 16.252 29.0219 16.1312L29.693 15.4609H32.3164C32.4371 15.8825 32.673 16.2621 32.9976 16.5571C33.3222 16.8521 33.7226 17.0507 34.1538 17.1307C34.5851 17.2107 35.0301 17.1688 35.4388 17.0098C35.8476 16.8508 36.2039 16.581 36.4678 16.2307C36.7317 15.8804 36.8927 15.4634 36.9327 15.0266C36.9726 14.5899 36.89 14.1506 36.6942 13.7582C36.4983 13.3658 36.1968 13.0358 35.8237 12.8052C35.4506 12.5747 35.0206 12.4527 34.582 12.453ZM34.582 15.8905C34.3696 15.8905 34.1619 15.8275 33.9852 15.7095C33.8086 15.5915 33.6709 15.4237 33.5896 15.2274C33.5083 15.0311 33.487 14.8151 33.5285 14.6068C33.5699 14.3984 33.6722 14.207 33.8224 14.0567C33.9727 13.9065 34.1641 13.8042 34.3725 13.7627C34.5808 13.7213 34.7968 13.7426 34.9931 13.8239C35.1894 13.9052 35.3572 14.0429 35.4752 14.2195C35.5932 14.3962 35.6562 14.6039 35.6562 14.8163C35.656 15.1012 35.5428 15.3743 35.3414 15.5757C35.14 15.7771 34.8669 15.8903 34.582 15.8905ZM34.582 31.3593C34.0688 31.3603 33.5699 31.5286 33.1611 31.8388C32.7522 32.149 32.4556 32.5841 32.3164 33.078H28.0289L25.6445 29.8984C25.5937 29.8306 25.5301 29.7736 25.4573 29.7305C25.3845 29.6873 25.3038 29.659 25.2201 29.647C25.1363 29.6351 25.0509 29.6397 24.9689 29.6607C24.887 29.6817 24.8099 29.7187 24.7422 29.7695C24.6745 29.8202 24.6174 29.8839 24.5743 29.9567C24.5312 30.0295 24.5028 30.1101 24.4909 30.1939C24.4789 30.2777 24.4835 30.363 24.5045 30.445C24.5255 30.527 24.5625 30.6041 24.6133 30.6718L27.1914 34.1093C27.2514 34.1893 27.3293 34.2543 27.4188 34.2991C27.5083 34.3438 27.607 34.3671 27.707 34.3671H32.3164C32.4371 34.7888 32.673 35.1684 32.9976 35.4634C33.3222 35.7583 33.7226 35.957 34.1538 36.0369C34.5851 36.1169 35.0301 36.0751 35.4388 35.9161C35.8476 35.7571 36.2039 35.4873 36.4678 35.137C36.7317 34.7866 36.8927 34.3697 36.9327 33.9329C36.9726 33.4961 36.89 33.0569 36.6942 32.6644C36.4983 32.272 36.1968 31.942 35.8237 31.7115C35.4506 31.4809 35.0206 31.3589 34.582 31.3593ZM34.582 34.7968C34.3696 34.7968 34.1619 34.7338 33.9852 34.6158C33.8086 34.4977 33.6709 34.3299 33.5896 34.1337C33.5083 33.9374 33.487 33.7214 33.5285 33.513C33.5699 33.3046 33.6722 33.1132 33.8224 32.963C33.9727 32.8128 34.1641 32.7104 34.3725 32.669C34.5808 32.6275 34.7968 32.6488 34.9931 32.7301C35.1894 32.8114 35.3572 32.9491 35.4752 33.1258C35.5932 33.3024 35.6562 33.5101 35.6562 33.7226C35.656 34.0074 35.5428 34.2805 35.3414 34.4819C35.14 34.6833 34.8669 34.7966 34.582 34.7968Z" fill="#1296DF"/>
</g>
<defs>
<clipPath id="clip0_34_1742">
<rect width="40" height="40" fill="white"/>
</clipPath>
</defs>
</svg>