<svg width="50" height="50" viewBox="0 0 50 50" fill="none" xmlns="http://www.w3.org/2000/svg">
<path fill-rule="evenodd" clip-rule="evenodd" d="M10.4953 29.8547C11.2922 30.575 11.7922 31.6172 11.7922 32.7766C11.7914 33.8221 11.3755 34.8246 10.6361 35.5637C9.89662 36.3029 8.89399 36.7183 7.84844 36.7187C6.80316 36.7179 5.80093 36.3023 5.0618 35.5632C4.32268 34.8241 3.90708 33.8218 3.90625 32.7766C3.90666 32.1468 4.05781 31.5263 4.34707 30.9669C4.63632 30.4076 5.05528 29.9255 5.56892 29.5612C6.08256 29.1968 6.67596 28.9607 7.29951 28.8726C7.92305 28.7845 8.55864 28.8469 9.15312 29.0547L10.0625 27.5266C4.94531 22.0141 5.06875 13.3844 10.4313 8.02187C15.9188 2.53438 24.8297 2.53438 30.3187 8.02187C31.7041 9.40454 32.7846 11.062 33.4906 12.8875L35.8859 10.2328C35.4431 9.64777 35.1721 8.95082 35.1035 8.22027C35.035 7.48973 35.1715 6.75453 35.4977 6.09729C35.824 5.44006 36.3271 4.88683 36.9505 4.49978C37.5738 4.11273 38.2928 3.90719 39.0266 3.90625C40.0718 3.90708 41.0741 4.32268 41.8132 5.0618C42.5523 5.80093 42.9679 6.80316 42.9688 7.84844C42.9681 8.53999 42.7857 9.21923 42.4398 9.81807C42.094 10.4169 41.5968 10.9143 40.998 11.2604C40.3993 11.6066 39.7202 11.7892 39.0286 11.7901C38.3371 11.7911 37.6574 11.6102 37.0578 11.2656L34.0328 14.6187C34.8693 18.0473 34.3905 21.665 32.6906 24.7578L44.9 36.9656C45.6313 37.699 46.0419 38.6924 46.0419 39.7281C46.0419 40.7638 45.6313 41.7572 44.9 42.4906C44.5373 42.8535 44.1066 43.1413 43.6326 43.3377C43.1586 43.534 42.6506 43.6351 42.1375 43.6351C41.6244 43.6351 41.1164 43.534 40.6424 43.3377C40.1684 43.1413 39.7377 42.8535 39.375 42.4906L27.1672 30.2828C22.1234 33.0641 15.7281 32.5172 11.2172 28.6391L10.4953 29.8547ZM32.2984 14.2094C31.6516 12.1613 30.4881 10.3144 28.9203 8.84651C27.3524 7.37863 25.4329 6.33926 23.3467 5.82855C21.2605 5.31784 19.078 5.353 17.0094 5.93064C14.9407 6.50828 13.0557 7.60894 11.5359 9.12656C9.30757 11.3571 8.00381 14.3469 7.8856 17.4977C7.7674 20.6484 8.84347 23.7275 10.8984 26.1187L14.3578 20.3C13.8236 19.872 13.4099 19.3123 13.1575 18.676C12.9052 18.0397 12.8228 17.3487 12.9185 16.6708C13.0142 15.993 13.2846 15.3518 13.7033 14.8102C14.1219 14.2686 14.6743 13.8453 15.3062 13.5819C15.938 13.3185 16.6275 13.2242 17.3069 13.3081C17.9863 13.392 18.6321 13.6513 19.1809 14.0605C19.7297 14.4697 20.1625 15.0146 20.4368 15.6418C20.7111 16.269 20.8174 16.9568 20.7453 17.6375L23.5891 19.2922C24.1786 18.5927 24.9934 18.1206 25.8934 17.9569C26.7934 17.7932 27.7223 17.9482 28.5203 18.3953L32.2984 14.2094ZM31.8375 26.1141C30.9251 27.3961 29.805 28.5167 28.5234 29.4297L30.6359 31.5406L33.95 28.2266L31.8375 26.1141ZM12.0297 27.2734C14.4113 29.4063 17.5193 30.5463 20.7152 30.4591C23.9111 30.3719 26.9523 29.0642 29.2141 26.8047C30.603 25.4171 31.645 23.7214 32.2556 21.8555C32.8662 19.9895 33.0281 18.0059 32.7281 16.0656L29.7078 19.4125C30.1614 19.9952 30.4423 20.6934 30.5187 21.4278C30.5951 22.1622 30.4638 22.9033 30.1399 23.5669C29.8159 24.2304 29.3123 24.7897 28.6862 25.1811C28.0602 25.5726 27.3368 25.7805 26.5984 25.7812C25.9801 25.7807 25.3705 25.6347 24.8189 25.3552C24.2673 25.0757 23.7891 24.6704 23.423 24.1721C23.0568 23.6738 22.8129 23.0964 22.7109 22.4865C22.6089 21.8766 22.6518 21.2512 22.8359 20.6609L20.2578 19.1609C19.8234 19.9314 19.1426 20.5335 18.3247 20.8705C17.5069 21.2074 16.5995 21.2596 15.7484 21.0187L12.0297 27.2734ZM31.7406 32.6453L40.4797 41.3859C40.9217 41.8129 41.5138 42.0491 42.1283 42.0438C42.7428 42.0384 43.3307 41.7919 43.7652 41.3574C44.1997 40.9228 44.4462 40.335 44.4516 39.7205C44.4569 39.1059 44.2207 38.5139 43.7938 38.0719L35.0547 29.3312L31.7406 32.6453ZM5.46875 32.7766C5.48466 33.3973 5.74243 33.9874 6.18712 34.4208C6.63181 34.8542 7.22823 35.0968 7.84922 35.0968C8.4702 35.0968 9.06662 34.8542 9.51131 34.4208C9.956 33.9874 10.2138 33.3973 10.2297 32.7766C10.2025 32.1635 9.93979 31.5846 9.49634 31.1604C9.0529 30.7362 8.46289 30.4994 7.84922 30.4994C7.23555 30.4994 6.64554 30.7362 6.2021 31.1604C5.75865 31.5846 5.49596 32.1635 5.46875 32.7766ZM36.6453 7.84844C36.6447 8.31991 36.784 8.78097 37.0455 9.17327C37.307 9.56557 37.679 9.87146 38.1145 10.0522C38.5499 10.233 39.0292 10.2806 39.4916 10.1889C39.9541 10.0971 40.379 9.87029 40.7125 9.53702C41.046 9.20374 41.2731 8.77903 41.3651 8.31662C41.4571 7.85421 41.4099 7.3749 41.2294 6.93934C41.0489 6.50378 40.7433 6.13156 40.3511 5.86978C39.959 5.60801 39.498 5.46844 39.0266 5.46875C37.7125 5.46875 36.6453 6.53594 36.6453 7.84844ZM19.8828 8.6C19.6758 8.61098 19.4729 8.53929 19.3188 8.40068C19.1647 8.26208 19.0719 8.06793 19.0609 7.86094C19.05 7.65394 19.1217 7.45107 19.2603 7.29694C19.3989 7.1428 19.593 7.05004 19.8 7.03906C21.3321 6.95684 22.8643 7.19833 24.2968 7.74781C25.7293 8.29728 27.03 9.14241 28.1141 10.2281C28.1866 10.3008 28.2441 10.387 28.2833 10.4818C28.3225 10.5767 28.3427 10.6784 28.3426 10.781C28.3426 10.8837 28.3223 10.9853 28.2829 11.0801C28.2436 11.1749 28.1859 11.2611 28.1133 11.3336C28.0406 11.4061 27.9544 11.4636 27.8596 11.5029C27.7647 11.5421 27.663 11.5622 27.5604 11.5622C27.4577 11.5621 27.3561 11.5418 27.2613 11.5024C27.1665 11.4631 27.0803 11.4054 27.0078 11.3328C26.0791 10.402 24.9645 9.67746 23.7367 9.20657C22.509 8.73568 21.1958 8.52899 19.8828 8.6ZM14.4438 17.2234C14.4438 17.5361 14.5053 17.8458 14.625 18.1347C14.7447 18.4236 14.9201 18.6861 15.1412 18.9072C15.3623 19.1284 15.6248 19.3038 15.9137 19.4234C16.2026 19.5431 16.5123 19.6047 16.825 19.6047C17.1377 19.6047 17.4474 19.5431 17.7363 19.4234C18.0252 19.3038 18.2877 19.1284 18.5088 18.9072C18.7299 18.6861 18.9053 18.4236 19.025 18.1347C19.1447 17.8458 19.2063 17.5361 19.2062 17.2234C19.2062 16.5919 18.9554 15.9862 18.5088 15.5396C18.0622 15.0931 17.4565 14.8422 16.825 14.8422C16.1935 14.8422 15.5878 15.0931 15.1412 15.5396C14.6946 15.9862 14.4438 16.5919 14.4438 17.2234ZM24.2188 21.8391C24.2347 22.4598 24.4924 23.0499 24.9371 23.4833C25.3818 23.9167 25.9782 24.1593 26.5992 24.1593C27.2202 24.1593 27.8166 23.9167 28.2613 23.4833C28.706 23.0499 28.9638 22.4598 28.9797 21.8391C28.9525 21.226 28.6898 20.6471 28.2463 20.2229C27.8029 19.7987 27.2129 19.5619 26.5992 19.5619C25.9856 19.5619 25.3955 19.7987 24.9521 20.2229C24.5086 20.6471 24.246 21.226 24.2188 21.8391Z" fill="#1296DF"/>
</svg>